<?xml version="1.0" encoding="UTF-8"?>
<svg viewBox="0 0 323 322" xmlns="http://www.w3.org/2000/svg">
  <defs>
    <clipPath id="clip-top-left">
      <rect x="0" y="0" width="161.5" height="161"/>
    </clipPath>
    <style>
      .cls-1 {
        fill: #e57424;
      }
    </style>
  </defs>
  <g clip-path="url(#clip-top-left)">
    <polygon class="cls-1" points="41.95 41.46 63.5 41.46 63.5 39.48 39.97 39.48 39.97 63.47 41.95 63.47 41.95 41.46"/>
    <path class="cls-1" d="m322.1,159.65h-8.67v-1.48h-1.98v1.48h-13.39v-2.6h-1.98v2.6h-13.43c-.54-66.02-54.22-119.63-120.35-120.16V.09h-1.98v39.4c-66.13.53-119.82,54.14-120.35,120.17h-13.43v-2.6h-1.98v2.6h-13.39v-1.48h-1.98v1.48H.55v1.98h8.67v1.48h1.98v-1.48h13.39v2.61h1.98v-2.61h13.43c.54,66.03,54.23,119.63,120.36,120.16v13.37h-2.61v1.98h2.61v13.36h-1.49v1.98h1.49v8.65h1.98v-8.65h1.49v-1.98h-1.49v-13.36h2.61v-1.98h-2.61v-13.37c66.13-.54,119.81-54.14,120.34-120.17h13.43v2.6h1.98v-2.6h13.39v1.48h1.98v-1.48h8.67v-1.98Zm-159.78,120.17v-13.35h4.86v-1.98h-4.86v-13.36h5.98v-1.98h-13.94v1.98h5.98v13.36h-4.86v1.98h4.86v13.35c-65.04-.53-117.85-53.24-118.38-118.18h13.34v4.85h1.98v-4.85h13.39v5.97h1.98v-13.92h-1.98v5.97h-13.39v-4.85h-1.98v4.85h-13.34c.53-64.94,53.33-117.66,118.37-118.19v13.29h-4.86v1.98h4.86v13.36h-5.98v1.98h13.94v-1.98h-5.98v-13.36h4.86v-1.98h-4.86v-13.29c65.04.53,117.84,53.24,118.38,118.18h-13.34v-4.85h-1.98v4.85h-13.39v-5.97h-1.98v13.92h1.98v-5.97h13.39v4.85h1.98v-4.85h13.34c-.53,64.94-53.33,117.65-118.36,118.19Z"/>
  </g>
</svg>
