<svg version="1.2" xmlns="http://www.w3.org/2000/svg" viewBox="0 0 141 50" width="141" height="50">
	<style>
		.s0 { fill: #8cc540 } 
		.s1 { fill: #008c99 } 
		.s2 { fill: #000000 } 
	</style>
	<g id="dubai-health-authority-seeklogo.com">
		<path id="Fill_1" class="s0" d="m97.1 21.3c2.9-1.5 5.6-3.3 7.9-5.4c2.2-2.2 4.2-4.6 5.8-7.3q2.2-4.1 3.1-8.6v15.8c0 1.1-0.2 2.2-0.7 3.2c-0.4 1.1-1 2-1.9 2.8c-0.9 0.8-1.8 1.4-2.9 1.9c-1.2 0.3-2.3 0.6-3.5 0.6h-17c3.2-0.6 6.4-1.6 9.2-3z" />
		<path id="Fill_3" class="s0" d="m132.2 28.7c-2.8 1.3-5.5 3.1-7.8 5.3q-3.5 3.3-5.8 7.3c-1.5 2.7-2.6 5.6-3.2 8.6v-15.9c0-1.1 0.2-2.1 0.7-3.1c0.5-1.1 1.1-2 2-2.8c0.8-0.8 1.8-1.4 2.9-1.8c1.1-0.4 2.3-0.7 3.4-0.7h17c-3.2 0.6-6.3 1.6-9.2 3.1z" />
		<path id="Fill_5" class="s1" d="m118.6 8.6c1.5 2.7 3.5 5.1 5.8 7.3c2.3 2.1 5 3.9 7.8 5.4c2.9 1.4 6 2.4 9.2 3h-17c-1.1 0-2.3-0.3-3.4-0.6c-1.1-0.5-2.1-1.1-2.9-1.9c-0.9-0.8-1.5-1.7-2-2.8c-0.5-1-0.7-2.1-0.7-3.2v-15.8c0.6 3 1.7 5.9 3.2 8.6z" />
		<path id="Fill_7" class="s2" d="m3.5 42.1q-0.5-0.3-1.1-0.6q0-0.1 0.1-0.2q0.1-0.1 0.1-0.2q0-0.1 0.1-0.1q0-0.2 0.1-0.3l1.2 0.6q0 0 0.1-0.2q0-0.1 0.1-0.3l1.1 0.5v0.2q0 0-0.1 0q0 0.1 0 0.1q0 0.1-0.1 0.1q0 0 0 0l-0.2 0.3q-0.1 0.1-0.1 0.1q0 0-0.2-0.1q-0.1-0.1-0.3-0.1q-0.1-0.1-0.2-0.2q-0.1 0-0.3-0.1c0 0-0.1 0.1-0.3 0.5zm-0.8-2.1q-0.1 0-0.3-0.1q-0.3 0-0.5-0.1q-0.1 0-0.3 0q-0.2-0.1-0.4-0.2q-0.1-0.2-0.3-0.3q-0.1-0.2-0.2-0.3q-0.1-0.2-0.2-0.4q0-0.2 0-0.4q0-0.2 0.1-0.4q0-0.2 0-0.4q0.1-0.2 0.2-0.4q0.1-0.2 0.2-0.4q0.1-0.2 0.1-0.3q0.1-0.3 0.2-0.4q0.1-0.2 0.3-0.3q0.1-0.2 0.3-0.3v0.2q0 0.1 0 0.2q-0.1 0.1-0.1 0.2q-0.1 0.1-0.1 0.2q-0.1 0.1-0.2 0.2q0 0.1-0.1 0.3q-0.1 0.1-0.2 0.3q0 0.2-0.1 0.3q0 0.2 0 0.3q0 1.4 2.1 1.4q0 0 0.8 0q0.1 0 0.3-0.1q0.3 0 0.5 0q0.1-0.1 0.3-0.1q0.3 0 0.5-0.1q0 0 0.2-0.1q0.1 0 0.2-0.1q0.2-0.1 0.3-0.1q0-0.1 0.1-0.1q0-0.2 0-0.3q0-0.1-0.1-0.2q0-0.1-0.1-0.2q-0.1 0-0.2 0q-0.1-0.1-0.3-0.1q-0.1 0-0.1 0q-0.1-0.1-0.3-0.1q-0.1 0-0.2 0q-0.2 0-0.3 0q0 0-0.1 0q-0.1 0-0.3-0.1q-0.1 0-0.2 0q0.1-0.1 0.2-0.2q0.1-0.2 0.2-0.3q0-0.1 0.1-0.3q0.1-0.1 0.1-0.2h12v-0.1q-0.1-0.2-0.1-0.4q0-0.2-0.1-0.5q-0.1-0.1-0.2-0.3q-0.1-0.2-0.3-0.4q0 0 0.4-0.5l0.2-0.5q0 0.2 0.1 0.2q0.1 0.2 0.2 0.3q0 0.1 0.1 0.2q0.1 0.2 0.1 0.2q0.1 0.2 0.1 0.4q0.1 0 0.1 0.2q0 0.2 0 0.3q0 0.2 0 0.3q0 0.2 0 0.4q0 0.2 0 0.3q-0.1 0.3-0.1 0.4q-0.1 0.3-0.1 0.4h-9.7q-0.1 0.3-0.3 0.5q-0.1 0.2-0.2 0.4q-0.1 0.3-0.3 0.4q-0.1 0.3-0.3 0.4l-0.1 0.2q-0.2 0.1-0.5 0.3q-0.2 0.1-0.5 0.1q-0.3 0.2-0.6 0.3q-0.3 0.1-0.6 0.1q-0.1 0-0.3 0q-0.2 0.1-0.4 0.1q-0.1 0-0.3 0q-0.2 0.1-0.4 0.1zm13.3-0.2l-1.2-0.7q0.2-0.3 0.4-0.5l0.1-0.3q0 0.1 1.2 0.7q-0.1 0.1-0.5 0.8zm-0.7-1.5q0 0 0 0zm10.8 1.5l-1.2-0.7l0.2-0.3q0.2-0.2 0.3-0.5q0 0.1 1.2 0.7c-0.1 0-0.2 0.4-0.5 0.8zm70-0.2q-0.4-0.2-1.2-0.6q-0.1 0.1-0.3 0.5l-1.3-0.6q0.1-0.1 0.2-0.3q0 0 0.1-0.1q0.1-0.2 0.2-0.3q0 0 0.1-0.1q0.3 0.1 1.2 0.6q0.1-0.2 0.3-0.5c0.1 0 0.5 0.2 1.2 0.6q-0.1 0.1-0.1 0.2q-0.1 0-0.2 0.2q0 0.1-0.1 0.2q-0.1 0-0.1 0.2zm-75.9-2.2q-0.1 0-0.2 0q-0.1 0-0.2 0q-0.1-0.1-0.2-0.1q-0.1 0-0.2 0l-0.2-0.2q0 0 0 0q0-0.1-0.1-0.2q0 0 0-0.1q0-0.1 0.1-0.3q0-0.2 0.1-0.4q0-0.2 0.1-0.3q0.1-0.3 0.2-0.4q0.1 0.1 0.1 0.5q0 0 0 0q0 0 0 0.1c0 0 0.2 0.2 0.2 0.3q0.1 0 0.3 0q0.1 0 0.2 0q0 0 0.2 0q0.1 0 0.3 0q0.2 0 0.3 0q0.3 0 0.5 0q0.2 0 0.4 0q0.2 0 0.4-0.1q0.3-0.1 0.4-0.7l-0.5-2q0.1-0.2 0.3-0.5q0.1-0.4 0.2-0.5q0.1 0.2 0.2 0.4q0.1 0.3 0.2 0.5q0 0.2 0.1 0.5q0 0.3 0 0.5q0 0.3 0 0.4q0.1 0.3 0.2 0.5q0 0.2 0.2 0.5q0.1 0.1 0.2 0.4h3v-0.1q-0.1-0.2-0.2-0.5q0-0.1-0.1-0.4q-0.1-0.1-0.2-0.4q-0.1-0.1-0.2-0.3q0-0.1 0.5-1q0.1 0.1 0.2 0.2q0.1 0.1 0.1 0.3q0 0 0.1 0.2q0 0.2 0.1 0.2q0.1 0.2 0.1 0.4q0.1 0 0.1 0.2q0 0.2 0.1 0.3q0 0.1 0 0.2q0 0.3 0 0.4q-0.1 0.3-0.1 0.4q-0.1 0.3-0.1 0.4q-0.1 0.3-0.1 0.4c0 0-3.4 0-3.4 0q-0.1 0-0.1 0q0 0-0.1 0q0-0.1-0.1-0.1q-0.1-0.1-0.1-0.2q0 0-0.1-0.1q0 0 0 0q-0.2-0.4-0.2-0.5q-0.1 0.1-0.2 0.2q0 0.2-0.1 0.3q-0.1 0-0.2 0.2q0 0.1-0.1 0.2q-0.1 0-0.2 0q-0.1 0.1-0.3 0.1q-0.1 0-0.2 0q0 0.1-0.2 0.1q-0.2 0-0.4 0q-0.1 0-0.3 0.1q-0.2 0-0.4 0q-0.2 0-0.4 0zm75.8-0.3q-0.1-0.1-0.3-0.4l-0.1-0.1q-0.1 0.1-0.1 0.1q-0.1 0-0.1 0.1q-0.1 0.1-0.1 0.2q-0.1 0.1-0.1 0.1h-3.3q-0.2 0-0.3-0.2l-0.2-0.2v-0.2q-0.1 0.1-0.2 0.2q0 0-0.1 0.1q-0.1 0.1-0.1 0.2q-0.1 0.1-0.1 0.1c0 0-12.6 0-12.6 0q0 0-0.1 0q0 0 0 0q-0.1 0-0.1 0q-0.1 0-0.1-0.1q-0.1 0-0.2-0.1q0-0.1-0.1-0.2q0 0 0 0q-0.1-0.1-0.1-0.2q0-0.1 0-0.2q0-0.1 0-0.2q0-0.1 0-0.2q0 0 0 0q0-0.1 0-0.1q0-0.1 0-0.1q-0.1 0-0.1-0.1q0 0.1-0.1 0.1q0 0-0.1 0.1q0 0-0.1 0.1q0 0-0.1 0q0 0.1-0.1 0.3l-0.2 0.2q-0.2-0.1-0.3-0.1q-0.2 0-0.4 0q-0.1 0-0.2-0.1q-0.2 0-0.4-0.1q0 0-0.1 0q0 0-0.1 0q0-0.1-0.1-0.1q-0.1 0-0.1 0q-0.1-0.1-0.2-0.1q-0.1 0-0.2 0q0 0-0.1-0.1q0 0-0.1-0.1q0.1-0.2 0.1-0.5q0.1-0.2 0.2-0.4q0.1-0.3 0.3-0.5q0.2-0.2 0.4-0.4q0.1 0 0.2-0.1q0.1-0.1 0.2-0.1q0.1-0.1 0.2-0.1q0 0 0.1 0q0.2-0.1 0.3-0.1q0.1 0 0.2-0.1q0.1 0 0.2-0.1q0.1 0 0.2-0.1q0 0 0 0q-0.1-0.1-0.1-0.2q0-0.1 0-0.1q0-0.1 0-0.2q0.1-0.1 0.2-0.2q0.1-0.1 0.2-0.2q0.1-0.2 0.2-0.2q0-0.1 0.2-0.3q0.1 1.1 0.4 3l0.1 1.1q0 0.1 0.1 0.2q0.1 0 0.2 0.1q0.1 0 0.2 0q0.1 0 0.2 0c0 0 11.9 0 11.9 0q0 0 0 0q0.1-0.1 0.1-0.1q0.1 0 0.1 0q0.1-0.1 0.1-0.1q0.1 0 0.1-0.1q0.1 0 0.1 0q0 0 0.1 0v-1.1q0 0 0.1-0.1q0-0.1 0.1-0.2q0-0.1 0-0.1q0.1-0.1 0.2-0.2q0.1-0.1 0.2-0.2q0 0 0.1-0.1q0.1-0.1 0.2-0.2q0-0.1 0.1-0.1v0.4l-0.3 1.9q0.1 0.1 0.1 0.1q0 0.1 0.1 0.1q0 0.1 0 0.1c0.1 0 3.1 0 3.1 0c0-0.1 0-0.3 0-0.3q0-0.1 0-0.2q0-0.1 0-0.2q-0.1 0-0.1-0.1q0-0.2 0-0.4q0-0.2 0-0.2q0 0 0-0.1q0-0.1 0.1-0.2q0-0.1 0.1-0.1q0.1-0.1 0.1-0.1q0.1-0.1 0.1-0.2q0.1-0.1 0.2-0.1q0 0 0.1-0.1q0-0.1 0-0.1q0 0 0 0.1q0 0.1 0 0.1q0 0 0.1 0.1q0 0.1 0 0.2c0 0.2 0 1.2 0 1.2q0 0.1 0.1 0.3q0 0.2 0 0.4h8.6q0.1-0.1 0.1-0.4q0-0.1 0-0.2q0 0 0.1-0.1q0 0 0-0.1q0-0.1 0.1-0.2q0.1-0.1 0.2-0.4q0.1-0.2 0.3-0.4q0.1-0.2 0.2-0.4q0.2-0.2 0.4-0.4q0 0 0 0q0-0.1 0-0.2q0 0 0-0.1q0 0 0-0.1q0.1 0 0.1-0.1q0 0 0-0.1q0.1-0.1 0.1-0.1q0 0 0-0.1q0.2-0.4 0.3-0.4q0.1 0.1 0.1 0.1q0.1 0 0.2 0q0 0 0.1 0.1q0 0 0.1 0.1q0.3 0.2 0.6 0.5q0.3 0.2 0.6 0.5q0.3 0.3 0.6 0.7q0.3 0.3 0.4 0.6q0.1 0.1 0.1 0.2q0.1 0.1 0.1 0.2q0 0.1 0.1 0.1q0 0.2 0 0.3q0 0.1 0 0.2q0 0.1-0.1 0.2q0 0.1-0.1 0.2q0 0.1-0.1 0.2q0 0.1 0 0.1q0 0.1-0.1 0.2q-0.1 0.1-0.2 0.2q-0.1 0-0.2 0l-2.6-0.2q-1.5 0.2-1.5 0.2zm12.2-2.3q-0.2 0-0.3 0.4q0 0 0 0.1q-0.1 0-0.1 0.1q0 0 0 0.1q0 0 0 0q0 0.4 0.4 0.5q0.1 0 0.2 0.1q0.1 0 0.2 0q0.1 0.1 0.2 0.1c0 0 0.3 0 0.4 0c0-0.1 0-0.3 0-0.3q-0.1-0.1-0.1-0.2q-0.1-0.1-0.2-0.2q0 0-0.1-0.1q-0.3-0.6-0.6-0.6zm-1.5-0.4q-0.3 0-0.9 0.8q-0.1 0-0.1 0q0 0.1 0 0.1q-0.1 0.1-0.1 0.1q0 0.2 0.5 0.4q0 0.1 0.1 0.1q0.1 0 0.2 0q0.1 0 0.1 0q0 0 0.1 0q0.1 0 0.1 0q0.1 0 0.2 0q0.1 0 0.1-0.1q0.1-0.1 0.1-0.1q0.1-0.1 0.1-0.1q0.1-0.1 0.1-0.1q0-0.1 0-0.1q0-0.1 0-0.2q0 0 0-0.1q0 0 0-0.1q0-0.1 0-0.2q-0.1 0-0.1 0q-0.1-0.1-0.1-0.1q-0.1-0.1-0.1-0.2q-0.1 0-0.2 0q-0.1-0.1-0.1-0.1zm-29.5-0.8q-0.1 0.1-0.2 0.2q0 0.1-0.1 0.2q0 0 0 0q-0.1 0.1-0.2 0.2q0 0.1-0.1 0.1q-0.1 0.1-0.2 0.1q-0.1 0-0.2 0q-0.1 0-0.2 0.1q-0.1 0-0.2 0q-0.1 0.1-0.2 0.1q-0.1 0.1-0.2 0.1q0 0.1-0.1 0.1q0.1 0 0.1 0.1q0 0 0.1 0.1q0 0 0.1 0.1q0.1 0 0.2 0q0.1 0.1 0.2 0.1q0.1 0 0.1 0q0.1 0 0.2 0q0.1 0.1 0.2 0.1q0.1 0 0.1 0q0.1 0 0.2 0q0 0 0.1 0q0 0.1 0 0.1h0.6zm-7.4 3.5l-0.7-6.2q0.1-0.2 0.1-0.4q0.1-0.2 0.2-0.4q0.2-0.2 0.3-0.4q0.1-0.2 0.2-0.4l0.4 6q0 0.3 0 0.5q-0.1 0.3-0.1 0.4q-0.1 0.2-0.2 0.5q-0.1 0.1-0.2 0.4zm-2.9 0h-12.4q-0.1-0.2-0.2-0.3q-0.3 0.3-0.5 0.3h-7.7q-0.1 0-0.3-0.3q0-0.1-0.1-0.3q0-0.1 0-0.2q-0.1-0.1-0.1-0.2q0-0.1 0-0.2c-0.2 0.1-0.5 0.2-0.9 0.5q-0.1 0.1-0.2 0.2q-0.1 0.1-0.2 0.2q-0.1 0-0.3 0q-0.1 0.1-0.1 0.2q-0.1 0-0.1 0q0 0-0.1 0q0 0.1-0.1 0.1h-8.5q-0.1 0-0.1-0.1q0 0 0 0q-0.1-0.1-0.2-0.1q-0.1-0.1-0.1-0.1q-0.1 0-0.1-0.1q-0.1-0.1-0.1-0.1q0-0.2 0-0.2q-0.1-0.1-0.1-0.2q0-0.1 0-0.1q0-0.1 0-0.3q-0.1-0.1-0.1-0.1q0 0 0 0q0-0.1 0-0.1q0 0 0 0.1q-0.1 0-0.1 0q-0.1 0-0.1 0.1q-0.1 0-0.1 0.1q-0.1 0.2-0.2 0.3l-0.3 0.2q0-0.1-0.2-0.1q-0.2-0.1-0.4-0.1q-0.1-0.1-0.2-0.1q-0.2 0-0.3 0q-0.1 0-0.2 0q0 0-0.1-0.1q-0.1 0-0.1 0q0 0-0.1-0.1q-0.1 0-0.2 0q0-0.1-0.1-0.1q-0.1-0.1-0.2-0.1q-0.1 0-0.1 0q0-0.3 0.1-0.6q0.1-0.2 0.2-0.5q0.2-0.1 0.4-0.4q0.1-0.2 0.3-0.4q0.1-0.1 0.2-0.1q0.1 0 0.2-0.1q0.1 0 0.1-0.1q0.2 0 0.3 0q0.1-0.1 0.2-0.1q0.1 0 0.2 0q0.1 0 0.2-0.1q0.1 0 0.2-0.1q0-0.1 0-0.2q0 0 0 0q0-0.1 0-0.2q0-0.1 0-0.2q0.1-0.1 0.2-0.2q0.1-0.1 0.2-0.2q0-0.1 0.1-0.2q0.1-0.2 0.2-0.2c0.1 0.8 0.3 2.2 0.5 3.9v0.2q0.1 0.1 0.2 0.1q0.1 0.1 0.2 0.1q0.1 0 0.2 0q0 0 0.1 0c0.1 0 7.6 0 7.7 0q0.1 0 0.2 0q0.2 0 0.2 0q0.1-0.1 0.2-0.1q0.3-0.1 0.5-0.2q0.1-0.1 0.3-0.2q0.2-0.1 0.4-0.3q0.1 0 0.3-0.2q-0.2-0.1-0.5-0.2q-0.3 0-0.5 0q-0.4-0.1-0.7-0.2q-0.2 0-0.5-0.1l-0.2 0.1c0 0-0.2 0-0.2 0q0 0-0.1 0.1q-0.1 0-0.1 0q-0.1 0.1-0.2 0.1q0 0-0.1 0q0 0-0.1 0.1q0 0 0 0.1q-0.1 0-0.1 0.1c0 0 0-0.3 0-0.3q0 0 0-0.1q0 0 0-0.1q0.1 0 0.1-0.1q0-0.1 0-0.2q0.1-0.1 0.2-0.3q0.1 0 0.2-0.1q0.1-0.1 0.3-0.2q0-0.1 0.1-0.1q0 0 0 0q0.1 0 0.2 0q0 0 0.1 0q0 0 0.1-0.1q0 0 0.1 0q0 0 0.1 0q0.1 0 0.2 0q0.1 0.1 0.2 0.1q0.1 0 0.2 0q0.1 0 0.2 0c0.6 0.2 1.5 0.4 2.5 0.6q0.2 0.1 0.3 0.1q0.1 0 0.2 0q0 0 0.1 0c0.1 0 0.8 0 0.8 0l-0.4 1c-0.1 0-1 0-1 0q-0.1 0-0.1 0q0 0-0.1 0q0 0 0 0q-0.1 0-0.2 0.1q-0.1 0-0.2 0q-0.1 0-0.2 0.1q-0.2 0-0.2 0.1v0.2q0.2 0.2 0.4 0.2h7.5q0.3 0 0.4-0.4q0-0.3 0-0.6q0.5-0.4 1-0.9q-0.1 0.4-0.1 0.8q0 0.2-0.1 0.3q0 0.1 0 0.2q-0.1 0.2-0.2 0.2q0 0.2 0 0.3q0 0.1 0.5 0.1h0.6q0.4-0.1 0.8-0.3q0.4-0.1 0.7-0.3q0.4-0.2 0.8-0.4q0.3-0.2 0.7-0.4q0.3-0.2 0.6-0.4q0.3-0.2 0.6-0.2q0.4-0.2 0.7-0.3q0.4-0.1 0.7-0.1q0.2 0 0.5 0q0.2 0.1 0.3 0.2q0.2 0 0.4 0.1q0.2 0.1 0.3 0.2q1 0.6 1 1.1q0 0.1 0 0.2q-0.1 0.1-0.1 0.1q0 0.1-0.1 0.1q-0.1 0.4-0.2 0.4c1 0 2.2 0 2.5 0q0.4 0 0.5 0c0 0 0-0.1 0-0.1q0-0.1 0-0.1q0-0.1 0-0.1q0-0.1 0-0.1c0 0 0-0.4-0.1-0.9q0-0.5-0.1-0.7q-0.1-0.9-0.4-2.4q0 0 0-0.1q-0.1-0.1-0.1-0.1q0-0.1-0.1-0.1q0 0 0 0q0 0 0-0.1q0-0.1 0-0.1q0 0 0-0.1q0 0 0 0q0.1-0.2 0.2-0.4q0 0 0.1-0.2q0.1-0.2 0.2-0.2q0.1-0.2 0.2-0.3h0.2q0 0.1 0 0.1q0 0 0 0.1l-0.1 0.1q0 0.1 0 0.1q0.1 0 0.1 0.1q0 0.1 0 0.1q0.3 0.1 0.8 0.4q-0.2 0.5-0.6 1.1l0.3 3.2q0 0 0 0q0 0.1 0 0.2q0 0.1 0 0.2q0 0 0 0q-0.1 0.3-0.1 0.4q0 0.2-0.1 0.3q0 0.1 0 0.2q0 0.1-0.1 0.2q0 0-0.1 0.1q0 0.1-0.1 0.2zm-5.8-2.4q-0.2 0-0.5 0.1q-0.2 0-0.4 0.1q-0.3 0-0.5 0.1q-0.2 0.1-0.4 0.3q-1 0.4-1.8 0.8h5.3q0 0 0.1 0q0.1 0 0.1 0q0.2-0.1 0.2-0.2q0-0.2-0.7-0.7q0 0-0.1-0.1q-0.1-0.1-0.2-0.2q-0.1 0-0.2 0q-0.1 0-0.2-0.1q-0.1 0-0.1 0q-0.1-0.1-0.2-0.1q-0.1 0-0.2 0q-0.1 0-0.2 0zm-27.1-1.1q0 0.1-0.1 0.1q-0.1 0-0.1 0.1q-0.1 0.1-0.2 0.2q0 0.1-0.1 0.1q0 0-0.1 0.1q-0.1 0-0.2 0.1q-0.1 0-0.2 0.1q-0.1 0-0.2 0q0 0.1-0.1 0.1q-0.1 0-0.2 0q-0.1 0.1-0.2 0.1q-0.1 0.1-0.2 0.1q0 0.1 0.1 0.2q0.1 0 0.1 0q0.1 0 0.2 0.1q0.1 0 0.1 0q0.1 0.1 0.2 0.1q0.1 0 0.2 0.1q0.1 0 0.2 0q0.1 0 0.2 0.1q0 0 0.1 0q0 0 0 0q0.1 0 0.1 0q0.1 0 0.1 0h0.6zm55.7-1l-0.1-0.1q0-0.1 0.6-0.5q0.2-0.2 0.4-0.3l-0.6-0.2q-0.4-0.2-0.4-0.4q0-0.2 0-0.3q0-0.2 0.1-0.3q0.1-0.1 0.2-0.3q0.1-0.1 0.2-0.2q0.2-0.1 0.3-0.2q0.1-0.1 0.2-0.2q0.2-0.1 0.4-0.1q0.1-0.1 0.2-0.1q0.1 0 0.4 0.2q0.2 0.1 0.2 0.2q-0.1 0.1-0.1 0.2q0 0-0.1 0.1q0 0 0 0q-0.1 0.1-0.1 0.2q-0.1-0.1-0.1-0.2q-0.1 0-0.2 0q-0.1 0-0.1 0q-0.1 0-0.1 0q-0.1 0-0.2 0q-0.1 0-0.2 0q-0.1 0-0.2 0q0 0.1 0 0.2q-0.4 0.2-0.4 0.4q0 0.3 1.4 0.4h1.2q0 0 0 0.1q0 0.1 0 0.1q-0.1 0.1-0.1 0.2q-0.1 0-0.1 0.1q-0.4 0.1-0.7 0.1q-0.4 0.1-0.7 0.3q-0.4 0-0.6 0.2q-0.4 0.2-0.7 0.4zm-12.5-1.1q-0.2-0.1-1.1-0.6q0 0.1-0.1 0.1q0 0.1-0.1 0.2q-0.1 0.1-0.1 0.1q-0.1 0.1-0.1 0.2l-0.2-0.1q-0.1-0.1-0.4-0.2q-0.4-0.3-0.6-0.3l0.4-0.8q0.5 0.2 1.2 0.5q0.1-0.1 0.4-0.5l1.2 0.7zm-44.3-0.6q-0.1 0.1-0.1 0.1q-0.1 0.1-0.1 0.2q0 0-0.1 0.1q0 0.1-0.1 0.2l-0.2-0.2q-0.2-0.1-0.4-0.1q-0.4-0.3-0.6-0.4l0.5-0.7q0.4 0.2 1.1 0.5q0 0 0.3-0.4l0.1-0.1l1.2 0.7l-0.5 0.7q-0.2-0.1-1.1-0.6z" />
		<path id="Fill_9" class="s2" d="m3.1 49.7h-2.5v-6.1h2.2q0.3 0 0.5 0.1q0.4 0 0.7 0.1q0.2 0.1 0.5 0.3q0.3 0.2 0.4 0.4q0.2 0.2 0.4 0.5q0.2 0.2 0.3 0.5q0 0.3 0 0.5q0.1 0.3 0.1 0.7q0 0.2-0.1 0.5q0 0.3 0 0.6q-0.1 0.3-0.3 0.5q-0.2 0.3-0.4 0.5q-0.1 0.2-0.3 0.4q-0.2 0.2-0.5 0.3q-0.2 0.1-0.5 0.2q-0.3 0-0.5 0zm-1.7-5.5v4.8c0.2 0 1.7 0 1.8 0q0.2 0 0.4-0.1q0.3-0.1 0.5-0.2q0.1-0.1 0.2-0.3q0.2-0.2 0.3-0.5q0.1-0.1 0.2-0.4q0-0.2 0-0.4q0.1-0.3 0-0.5q0-0.3 0-0.4q0-0.2 0-0.5q-0.1-0.1-0.2-0.4q-0.1-0.1-0.3-0.3q-0.1-0.2-0.2-0.4q-0.2-0.1-0.5-0.2q-0.2-0.1-0.4-0.1q-0.2-0.1-0.5-0.1z" />
		<path id="Fill_11" class="s2" d="m10.7 43.6h0.7v4q0 0.3 0 0.5q-0.1 0.2-0.1 0.4q-0.1 0.2-0.3 0.5q-0.1 0.1-0.2 0.3q-0.2 0.1-0.4 0.2q-0.3 0.2-0.4 0.3q-0.2 0-0.5 0q-0.2 0-0.4 0q-0.3 0-0.5 0q-0.2 0-0.4 0q-0.3-0.1-0.4-0.3q-0.2-0.1-0.4-0.2q-0.2-0.2-0.3-0.4q-0.1-0.2-0.1-0.4q-0.1-0.2-0.1-0.5q-0.1-0.1 0-0.4v-4h0.8v4q0 0.1 0 0.3q0 0.1 0 0.2q0 0.2 0.1 0.2q0 0.2 0 0.3q0 0.1 0.1 0.1q0.1 0.1 0.1 0.2q0.1 0 0.2 0.1q0.1 0 0.2 0q0.1 0 0.1 0.1q0.1 0 0.2 0q0.1 0 0.2 0q0.1 0 0.3 0q0.1 0.1 0.2 0q0.2 0 0.4 0q0.1-0.1 0.2-0.1q0.1-0.1 0.3-0.2q0.1-0.1 0.2-0.3q0.1-0.1 0.1-0.2q0.1-0.2 0.1-0.4q0-0.1 0-0.3z" />
		<path id="Fill_13" class="s2" d="m15.5 49.7h-2.6v-6.1c0.1 0 2.8 0 3 0q0.1 0.1 0.3 0.1q0.3 0 0.5 0.1q0 0.1 0.2 0.2q0.1 0.1 0.2 0.3q0.1 0.1 0.2 0.2q0.1 0.2 0.1 0.3q0 0.1 0 0.3q0 0.2 0 0.5q-0.1 0.2-0.3 0.4q-0.2 0.2-0.4 0.3q-0.2 0.1-0.5 0.2q0.2 0 0.4 0.1q0.1 0 0.2 0.1q0.1 0 0.3 0.1q0.1 0.2 0.2 0.3q0.1 0 0.1 0.2q0 0.1 0.1 0.2q0 0.1 0.1 0.3q0 0.1 0 0.2q0 0.2-0.1 0.3q0 0.2-0.1 0.4q0 0.1-0.1 0.3q-0.1 0.1-0.2 0.2q-0.2 0.2-0.4 0.2q-0.1 0.1-0.4 0.2q-0.2 0.1-0.3 0.1q-0.3 0.1-0.5 0zm-1.8-2.9v2.2c0.1 0 1.9 0 2 0q0.2 0 0.3 0q0.1 0 0.2-0.1q0.1-0.1 0.2-0.2q0.1 0 0.2-0.1q0.1-0.1 0.1-0.2q0-0.1 0-0.2q0-0.1 0-0.2q0-0.1 0-0.1q0-0.1 0-0.2q0-0.1 0-0.2q0 0 0-0.1q-0.1-0.1-0.1-0.1q-0.1-0.1-0.1-0.2q-0.1 0-0.2 0q-0.1-0.1-0.1-0.1q-0.2-0.1-0.2-0.1q-0.1-0.1-0.2-0.1q-0.1 0-0.3 0q-0.1 0-0.2 0zm0-2.6v2h1.4q0.2 0.1 0.4 0.1q0.1-0.1 0.3-0.1q0.1-0.1 0.2-0.2q0.2 0 0.3-0.1q0.1 0 0.2-0.2q0.1-0.1 0.1-0.1q0-0.1 0-0.2q0-0.2 0-0.2q0-0.1 0-0.2q0-0.1 0-0.2q0-0.1-0.1-0.2q-0.1-0.1-0.2-0.1q-0.1-0.1-0.2-0.1q-0.1-0.1-0.3-0.1q0-0.1-0.2-0.1q-0.1 0-0.3 0z" />
		<path id="Fill_15" class="s2" d="m18.7 49.7h-0.6l2.1-6.1h0.9l2.2 6.1h-0.9l-0.6-1.8h-2.5zm1.8-5.2l-0.9 2.9h2z" />
		<path id="Fill_17" class="s2" d="m24.1 43.6h0.8v6.1h-0.8z" />
		<path id="Fill_19" class="s2" d="m33.7 49.7h-0.8v-2.9h-3.1v2.9h-0.8v-6.1h0.8v2.5h3.1v-2.5h0.8z" />
		<path id="Fill_20" class="s2" d="m39.6 49v0.7h-4.3v-6.1h4.2v0.7h-3.4v1.9h2.7v0.6h-2.7v2.2z" />
		<path id="Fill_21" class="s2" d="m40.6 49.7h-0.7l2.1-6.1h1l2.1 6.1h-0.9l-0.6-1.8h-2.4zm1.7-5.2l-1 2.9h2.1z" />
		<path id="Fill_22" class="s2" d="m49.8 49v0.7h-3.9v-6.1h0.9v5.4z" />
		<path id="Fill_23" class="s2" d="m52.1 49.7h-0.8v-5.4h-1.9v-0.7h4.5v0.7h-1.8z" />
		<path id="Fill_24" class="s2" d="m59.6 49.7h-0.8v-2.9h-3.1v2.9h-0.8v-6.1h0.8v2.5h3.1v-2.5h0.8z" />
		<path id="Fill_25" class="s2" d="m63.5 49.7h-0.7l2.2-6.1h0.9l2.1 6.1h-0.8l-0.7-1.8h-2.3zm1.8-5.2l-1.1 2.9h2.1z" />
		<path id="Fill_26" class="s2" d="m72.4 43.6h0.7v4q0 0.3 0 0.5q0 0.2-0.1 0.4q-0.1 0.2-0.2 0.5q-0.2 0.1-0.4 0.3q-0.1 0.1-0.3 0.2q-0.2 0.2-0.4 0.3q-0.2 0-0.4 0q-0.3 0-0.4 0q-0.3 0-0.6 0q-0.2 0-0.4 0q-0.2-0.1-0.4-0.3q-0.2-0.1-0.3-0.2q-0.2-0.2-0.3-0.4q-0.2-0.2-0.3-0.4q0-0.2 0-0.5q0-0.1 0-0.4v-4h0.8v4q0 0.1 0 0.3q0 0.1 0 0.2q0 0.2 0.1 0.2q0 0.2 0.1 0.3q0 0.1 0.1 0.1q0 0.1 0.1 0.2q0.1 0 0.2 0.1q0.1 0 0.1 0q0.1 0 0.2 0.1q0.1 0 0.2 0q0.1 0 0.2 0q0.1 0 0.2 0q0.1 0.1 0.3 0q0.2 0 0.3 0q0.1-0.1 0.2-0.1q0.2-0.1 0.3-0.2q0.2-0.1 0.2-0.3q0.1-0.1 0.2-0.2q0-0.2 0-0.4q0-0.1 0-0.3z" />
		<path id="Fill_27" class="s2" d="m76.6 49.7h-0.8v-5.4h-1.9v-0.7h4.6v0.7h-1.9z" />
		<path id="Fill_28" class="s2" d="m84.1 49.7h-0.8v-2.9h-3.1v2.9h-0.8v-6.1h0.8v2.5h3.1v-2.5h0.8z" />
		<path id="Fill_29" class="s2" d="m87.9 49.8q-0.2 0-0.5 0q-0.2 0-0.5-0.2q-0.3-0.1-0.5-0.3q-0.2-0.2-0.4-0.4q-0.2-0.2-0.3-0.5q-0.1-0.2-0.2-0.5q-0.1-0.4-0.2-0.6q0-0.3 0-0.6q0-0.4 0-0.7q0.1-0.2 0.2-0.5q0.1-0.3 0.2-0.6q0.1-0.3 0.3-0.5q0.2-0.2 0.5-0.4q0.1-0.2 0.4-0.3q0.3-0.1 0.5-0.2q0.3 0 0.6 0q0.3 0 0.6 0q0.2 0.1 0.5 0.2q0.3 0.1 0.4 0.3q0.3 0.1 0.5 0.4q0.2 0.2 0.2 0.4q0.2 0.4 0.3 0.6q0.1 0.3 0.2 0.6q0 0.3 0 0.6q0 0.3 0 0.6q-0.1 0.3-0.2 0.6q-0.1 0.3-0.3 0.5q0 0.4-0.2 0.6q-0.2 0.2-0.4 0.4q-0.2 0.1-0.5 0.3q-0.3 0.2-0.5 0.2q-0.3 0-0.7 0zm0-5.7q-0.1 0-0.3 0q-0.2 0.1-0.4 0.2q-0.1 0.1-0.3 0.2q-0.2 0.2-0.3 0.3q-0.1 0.2-0.1 0.4q-0.1 0.3-0.2 0.5q-0.1 0.3-0.1 0.5q0 0.2 0 0.5q0 0.2 0 0.4q0 0.3 0.1 0.5q0.1 0.3 0.2 0.5q0 0.2 0.1 0.4q0.2 0.2 0.3 0.3q0.2 0.2 0.3 0.2q0.2 0.1 0.4 0.2q0.2 0 0.4 0q0.2 0 0.4 0q0.2-0.1 0.3-0.2q0.2-0.1 0.4-0.2q0.2-0.1 0.3-0.3q0-0.2 0.1-0.5q0.1-0.2 0.2-0.5q0.1-0.2 0.1-0.4q0-0.3 0-0.5q0-0.3 0-0.5q0-0.2-0.1-0.5q-0.1-0.2-0.2-0.4q-0.1-0.2-0.1-0.4q-0.2-0.2-0.3-0.3q-0.2-0.1-0.4-0.2q-0.1-0.1-0.3-0.2q-0.2 0-0.5 0z" />
		<path id="Fill_30" class="s2" d="m92.7 49.7h-0.8v-6.1h2.6q0.2 0 0.4 0.1q0.2 0 0.5 0q0.1 0.1 0.3 0.2q0.2 0.1 0.4 0.2q0 0.2 0.1 0.3q0.1 0.1 0.2 0.3q0.1 0.1 0.1 0.3q0.1 0.2 0.1 0.3q0 0.1-0.1 0.3q0 0.1 0 0.2q-0.1 0.2-0.1 0.2q-0.1 0.1-0.2 0.3q0 0-0.1 0.1q-0.1 0.2-0.2 0.3q-0.1 0-0.3 0.1q-0.2 0-0.2 0.1l1.2 2.8h-0.8l-1.2-2.6h-1.9zm0-5.4v2.1c0.1 0 1.9 0 1.9 0q0.2 0 0.3-0.1q0.2 0 0.3 0q0.1-0.1 0.2-0.2q0.1-0.1 0.1-0.2q0.1 0 0.1-0.2q0.1-0.1 0.1-0.2q0-0.1 0-0.2q0-0.2 0-0.2q0-0.1-0.1-0.3q0-0.1-0.1-0.1q-0.1-0.1-0.1-0.2q-0.1-0.1-0.2-0.1q-0.1-0.1-0.2-0.1q-0.2 0-0.3 0q-0.1 0-0.2 0z" />
		<path id="Fill_31" class="s2" d="m97.9 43.6h0.8v6.1h-0.8z" />
		<path id="Fill_32" class="s2" d="m102.3 49.7h-0.8v-5.4h-1.8v-0.7h4.6v0.7h-2z" />
		<path id="Fill_33" class="s2" d="m109.8 43.6l-2.2 3.5v2.6h-0.8v-2.6l-2.2-3.5h1l1.7 2.8l1.8-2.8z" />
	</g>
</svg>