<?xml version="1.0" encoding="utf-8"?>
<!-- Generator: Adobe Illustrator 19.2.1, SVG Export Plug-In . SVG Version: 6.00 Build 0)  -->
<svg version="1.1" id="layer" xmlns="http://www.w3.org/2000/svg" xmlns:xlink="http://www.w3.org/1999/xlink" x="0px" y="0px"
	 viewBox="0 0 652 652" style="enable-background:new 0 0 652 652;" xml:space="preserve">
<style type="text/css">
	.st0{fill:#00A1DF;}
	.st1{fill:#005487;}
	.st2{fill:#7FA9C3;}
</style>
<g>
	<g>
		<path class="st0" d="M272,270.4c-26.5,1.4-47,24.1-45.6,50.7c1.4,26.5,24.1,47,50.7,45.6c3.8-0.1,7.5-0.9,11.1-1.9l0,0l3.6,6.8
			c1.4,2.8,4.8,3.8,7.7,2.4c2.8-1.4,3.8-4.8,2.4-7.7l-3.3-6.1c15.1-8.8,24.9-25.6,23.9-44.3C321.4,289.5,298.6,269,272,270.4z
			 M293.5,350.1l-4.1-7.8c-1.4-2.8-4.8-3.8-7.7-2.4c-2.8,1.4-3.8,4.8-2.4,7.7l3.6,6.8l0,0c-2,0.4-4.1,0.7-6.3,0.9
			c-20.2,1-37.6-14.5-38.7-34.9c-1-20.2,14.5-37.6,34.9-38.7c20.2-1,37.6,14.5,38.7,34.9C312.1,330.6,304.7,343.3,293.5,350.1z"/>
		<path class="st0" d="M198,366.5c-3.1,0-5.7-2.6-5.7-5.7v-84.6c0-3.1,2.6-5.7,5.7-5.7s5.7,2.6,5.7,5.7v84.6
			C203.7,363.9,201.1,366.5,198,366.5z"/>
		<path class="st1" d="M468.4,366.5c-3.1,0-5.7-2.6-5.7-5.7v-84.6c0-3.1,2.6-5.7,5.7-5.7s5.7,2.6,5.7,5.7v84.6
			C474.1,363.9,471.6,366.5,468.4,366.5z"/>
		<path class="st1" d="M387.3,366.5L387.3,366.5c-2.1,0-4.1-1.1-5-3L338,278.9c-1.4-2.8-0.4-6.3,2.4-7.7c2.8-1.4,6.3-0.4,7.7,2.4
			l39.3,75l40-75c1.4-2.7,5-3.8,7.7-2.3c2.7,1.4,3.8,5,2.3,7.7l-45.1,84.6C391.3,365.3,389.3,366.5,387.3,366.5z"/>
		<g>
			<path class="st1" d="M567.8,347.3h-27.3c-3.1,0-5.7-2.6-5.7-5.7c0-3.1,2.6-5.7,5.7-5.7h27.5c3.1,0,5.7,2.6,5.7,5.7
				C573.6,344.7,571.1,347.3,567.8,347.3z"/>
			<path class="st1" d="M598.7,366.5c-2,0-4-1.1-5-3l-39.3-75l-40,75c-1.4,2.7-5,3.8-7.7,2.3c-2.7-1.4-3.8-5-2.3-7.7l45.1-84.6
				c1-1.9,3-3.1,5-3c2.1,0,4,1.1,5,3l44.3,84.6c1.4,2.8,0.4,6.3-2.4,7.7C600.5,366.2,599.5,366.5,598.7,366.5z"/>
		</g>
	</g>
	<g>
		<path class="st1" d="M599.5,284.6h-2v-12.2h-4.4v-1.9h11v1.7h-4.6V284.6z"/>
		<path class="st1" d="M613.3,281.4L613.3,281.4l4.1-10.8h3v14h-2v-11.7l0,0l-4.7,11.7h-1.3l-4.7-11.7l0,0v11.7h-1.9v-14h3
			L613.3,281.4z"/>
	</g>
	<g>
		<path class="st1" d="M159.2,350.7h-27.9c-2,3.6-4.3,6.8-6.7,9.7h34.7c2.7,0,4.8-2.1,4.8-4.8l0,0
			C164.1,352.8,161.9,350.7,159.2,350.7z"/>
		<path class="st1" d="M159.2,332.2h-21.4c-0.7,3.4-1.6,6.5-2.7,9.7h23.9c2.7,0,4.8-2.1,4.8-4.8
			C163.9,334.3,161.9,332.2,159.2,332.2z"/>
		<path class="st1" d="M159.2,313.7h-20.1c0.1,1.6,0.1,3,0.1,4.6c0,1.7,0,3.4-0.1,5.1h20.1c2.7,0,4.8-2.1,4.8-4.8
			S161.9,313.7,159.2,313.7z"/>
		<path class="st1" d="M159.2,295.2h-23.8c1.1,3.1,2,6.4,2.6,9.7h21.2c2.7,0,4.8-2.1,4.8-4.8l0,0
			C164.1,297.4,161.9,295.2,159.2,295.2z"/>
		<path class="st1" d="M159.2,276.7h-34.2c2.4,2.8,4.7,6.1,6.5,9.7h27.6c2.7,0,4.8-2.1,4.8-4.8S161.9,276.7,159.2,276.7z"/>
		<path class="st0" d="M66.9,355.5L66.9,355.5c0-2.7,2.1-4.8,4.8-4.8H52.6c-2.7,0-4.8,2.1-4.8,4.8l0,0c0,2.7,2.1,4.8,4.8,4.8h19.1
			C69.1,360.4,66.9,358.1,66.9,355.5z"/>
		<path class="st2" d="M131.3,350.7H71.7c-2.7,0-4.8,2.1-4.8,4.8l0,0c0,2.7,2.1,4.8,4.8,4.8h52.8
			C127.1,357.4,129.3,354.2,131.3,350.7z"/>
		<path class="st0" d="M53.3,338c-0.7-3.1,1.7-5.8,4.7-5.8H39c-2.7,0-4.8,2.1-4.8,4.8c0,2.7,2.1,4.8,4.8,4.8h19.2
			C55.9,341.9,53.8,340.3,53.3,338z"/>
		<path class="st2" d="M138,332.2H58c-3,0-5.4,2.7-4.7,5.8c0.4,2.3,2.6,3.8,4.8,3.8h77C136.5,338.7,137.3,335.5,138,332.2z"/>
		<path class="st0" d="M39.7,319.5c-0.7-3.1,1.7-5.8,4.7-5.8H25.3c-2.7,0-4.8,2.1-4.8,4.8c0,2.7,2.1,4.8,4.8,4.8h19.2
			C42.2,323.4,40.2,321.8,39.7,319.5z"/>
		<path class="st2" d="M39.7,319.5c0.4,2.3,2.6,3.8,4.8,3.8H139c0.1-1.7,0.1-3.4,0.1-5.1c0-1.6,0-3.1-0.1-4.6H44.5
			C41.5,313.7,39.1,316.4,39.7,319.5z"/>
		<path class="st0" d="M46.4,300c0-2.7,2.1-4.8,4.8-4.8H32.1c-2.7,0-4.8,2.1-4.8,4.8l0,0c0,2.7,2.1,4.8,4.8,4.8h19.1
			C48.5,304.8,46.4,302.7,46.4,300z"/>
		<path class="st2" d="M135.5,295.2H51.2c-2.7,0-4.8,2.1-4.8,4.8c0,2.7,2.1,4.8,4.8,4.8H138C137.5,301.6,136.6,298.3,135.5,295.2z"
			/>
		<path class="st0" d="M81.5,282.6c-0.7-3.1,1.7-5.8,4.7-5.8H67.1c-2.7,0-4.8,2.1-4.8,4.8s2.1,4.8,4.8,4.8h19.2
			C84.2,286.5,82.1,284.9,81.5,282.6z"/>
		<path class="st2" d="M125.1,276.7H86.4c-3,0-5.4,2.7-4.7,5.8c0.4,2.3,2.6,3.8,4.8,3.8h45.1C129.8,282.9,127.5,279.7,125.1,276.7z"
			/>
	</g>
</g>
</svg>
