<svg xmlns="http://www.w3.org/2000/svg" xmlns:xlink="http://www.w3.org/1999/xlink" width="525.727" height="133.692" viewBox="0 0 525.727 133.692">
  <defs>
    <clipPath id="clip-path">
      <path id="Path_38532" data-name="Path 38532" d="M47.371,192.526c-.081,2.922,4.482,2.982,4.477.06a2.239,2.239,0,0,0-4.477-.06" fill="none"/>
    </clipPath>
    <linearGradient id="linear-gradient" x1="-7.836" y1="41.431" x2="-7.668" y2="41.431" gradientUnits="objectBoundingBox">
      <stop offset="0" stop-color="#aaacac"/>
      <stop offset="0.606" stop-color="#b7b8b8"/>
      <stop offset="1" stop-color="#c3c3c3"/>
    </linearGradient>
    <clipPath id="clip-path-2">
      <path id="Path_38533" data-name="Path 38533" d="M47.653,192.454c-.073,2.619,4.021,2.673,4.017.053a2.009,2.009,0,0,0-4.017-.053" fill="none"/>
    </clipPath>
    <linearGradient id="linear-gradient-2" x1="-10.137" y1="54.496" x2="-9.923" y2="54.496" gradientUnits="objectBoundingBox">
      <stop offset="0" stop-color="#c8cacc"/>
      <stop offset="1" stop-color="#d5d7d8"/>
    </linearGradient>
    <clipPath id="clip-path-3">
      <path id="Path_38535" data-name="Path 38535" d="M49.7,190.295c-.753,1.619.78,1.781.575.059,1.185-5.686,1.434-11.933-1.758-13.083,2.675,2.51,2.094,9.59,1.183,13.024" fill="none"/>
    </clipPath>
    <linearGradient id="linear-gradient-3" x1="-5.445" y1="14.659" x2="-5.326" y2="14.659" gradientUnits="objectBoundingBox">
      <stop offset="0" stop-color="#1b4a73"/>
      <stop offset="0.195" stop-color="#194468"/>
      <stop offset="0.674" stop-color="#163855"/>
      <stop offset="1" stop-color="#16344e"/>
    </linearGradient>
    <clipPath id="clip-path-4">
      <path id="Path_38536" data-name="Path 38536" d="M48.623,192.42a1.278,1.278,0,0,0,2.55-.177,1.2,1.2,0,0,0-1.259-1.167,1.22,1.22,0,0,0-1.291,1.344" fill="none"/>
    </clipPath>
    <linearGradient id="linear-gradient-4" x1="-13.18" y1="65.636" x2="-12.906" y2="65.636" xlink:href="#linear-gradient"/>
    <clipPath id="clip-path-5">
      <path id="Path_38537" data-name="Path 38537" d="M48.9,192.3a1.091,1.091,0,0,0,2.176-.149,1.011,1.011,0,0,0-1.073-.974,1.031,1.031,0,0,0-1.1,1.123" fill="none"/>
    </clipPath>
    <linearGradient id="linear-gradient-5" x1="-18.468" y1="91.662" x2="-18.089" y2="91.662" gradientUnits="objectBoundingBox">
      <stop offset="0" stop-color="#dbdcdc"/>
      <stop offset="0.651" stop-color="#e5e5e5"/>
      <stop offset="1" stop-color="#eeeded"/>
    </linearGradient>
    <clipPath id="clip-path-6">
      <path id="Path_38540" data-name="Path 38540" d="M34.573,188.509s1.336,8.184-3.675,8.053c.3,1.523,5.517-.221,4.216-8.127Z" fill="none"/>
    </clipPath>
    <linearGradient id="linear-gradient-6" x1="-2.714" y1="32.158" x2="-2.619" y2="32.158" gradientUnits="objectBoundingBox">
      <stop offset="0" stop-color="#96999a"/>
      <stop offset="0.127" stop-color="#aeb1b2"/>
      <stop offset="0.255" stop-color="#c1c3c5"/>
      <stop offset="0.346" stop-color="#c8cacc"/>
      <stop offset="0.67" stop-color="#d9dbdb"/>
      <stop offset="0.752" stop-color="#d5d7d7"/>
      <stop offset="0.832" stop-color="#c9cbcb"/>
      <stop offset="0.911" stop-color="#b5b8b8"/>
      <stop offset="0.99" stop-color="#999c9d"/>
      <stop offset="1" stop-color="#96999a"/>
    </linearGradient>
    <clipPath id="clip-path-7">
      <path id="Path_38541" data-name="Path 38541" d="M31.564,189.156c1.7,7.828,7.193,7.529,6.914,6-4.612,1.967-6.383-6.132-6.383-6.132Z" fill="none"/>
    </clipPath>
    <linearGradient id="linear-gradient-7" x1="-3.681" y1="25.156" x2="-3.562" y2="25.156" xlink:href="#linear-gradient-6"/>
    <clipPath id="clip-path-8">
      <path id="Path_38544" data-name="Path 38544" d="M34.79,176.69c-2.173,1.965-2.709,5.69-2.576,7.454-1.935.809-.781,5.232-.719,5.262a1.932,1.932,0,0,0,.773-.219c.053-.083-1.384-4.222.327-4.408,1.877-.2,1.86,4.077,1.889,4.148a1.745,1.745,0,0,0,.877-.079c.054-.083-.376-4.573-2.591-4.76-.1-1.683.356-5.29,2.624-7.2.614-.123.382-.393-.021-.393a.963.963,0,0,0-.583.2" fill="none"/>
    </clipPath>
    <linearGradient id="linear-gradient-8" x1="-5.055" y1="18.584" x2="-4.887" y2="18.584" xlink:href="#linear-gradient-3"/>
  </defs>
  <g id="Group_5177" data-name="Group 5177" transform="translate(444.003 -12873.31)">
    <path id="Path_38515" data-name="Path 38515" d="M32.993,210.155c-2.959,6.01-3.392,14.3-2.879,19.882.154,8.292.074,13.757-.711,19.463,1.088,1.521-1.6,21.013-1.6,21.013s3.262,3.043,4.621,2.283c.329-4.728,3.207-16.81,4.077-21.912v-8.655L41.937,224.1c1.223.76,3.4,9.89,3.4,9.89s2.854,9.1,2.854,11.016v7.4c.672,2.386,4.492,16.427,4.077,19.63,0,0,3.805.608,5.028-.3-.42-3.722-1.611-23.755-2.709-26.933-.324-7.737.419-19.136-1.379-26.567-5.236-14.167.678-3.379-20.212-8.075" transform="translate(-444 12727)" fill="#e3401b"/>
    <path id="Path_38516" data-name="Path 38516" d="M49.159,208.786c-3.976.741-14.483.2-16.159-.356l-.243,2.145c-.319.936,13.548,1.723,17.055.585-.263-.9-.664-2.265-.653-2.374" transform="translate(-444 12727)" fill="#fff"/>
    <path id="Path_38517" data-name="Path 38517" d="M36.1,176.484s9.218,1.767,10.2.787a1.171,1.171,0,0,1,1.808,0c.293,3.885,1.1,21.006.961,25.244-.048.327,1.313,4.356,1.313,4.356l-.246,1.893a6.743,6.743,0,0,1-1.268.582,48.291,48.291,0,0,1-6.546.387,55.093,55.093,0,0,1-7-.658c-.714-3.542,2.92-10.053,3.136-15.488C38.24,191.191,35.7,180.3,35.7,180.3Z" transform="translate(-444 12727)" fill="#e3401b"/>
    <path id="Path_38518" data-name="Path 38518" d="M36.1,176.484s9.218,1.767,10.2.787a1.171,1.171,0,0,1,1.808,0c.293,3.885,1.1,21.006.961,25.244-.048.327,1.313,4.356,1.313,4.356l-.246,1.893a6.743,6.743,0,0,1-1.268.582,48.291,48.291,0,0,1-6.546.387,55.093,55.093,0,0,1-7-.658c-.714-3.542,2.92-10.053,3.136-15.488C38.24,191.191,35.7,180.3,35.7,180.3Z" transform="translate(-444 12727)" fill="none" stroke="#fff" stroke-miterlimit="10" stroke-width="1"/>
    <path id="Path_38519" data-name="Path 38519" d="M2.453,231.7s-6.743-7.788,4.065-21.341c13.163-14.935,24.337,6.268,23.025-20.944l-5.458,5.7.7,2.973s-4.842,2.036-4.406,4.213c-10.318-1.675,2.647-16.195,3.6-18.152,0,0,1.535-7.208,12.121-7.661,3.19,4.667,4.363,24.3-1.634,34.161-9.544,13.97-32.348,2.471-32.013,21.051" transform="translate(-444 12727)" fill="#fff"/>
    <path id="Path_38520" data-name="Path 38520" d="M2.453,231.7s-6.743-7.788,4.065-21.341c13.163-14.935,24.337,6.268,23.025-20.944l-5.458,5.7.7,2.973s-4.842,2.036-4.406,4.213c-10.318-1.675,2.647-16.195,3.6-18.152,0,0,1.535-7.208,12.121-7.661,3.19,4.667,4.363,24.3-1.634,34.161C24.922,224.615,2.118,213.116,2.453,231.7Z" transform="translate(-444 12727)" fill="none" stroke="#0c878d" stroke-miterlimit="10" stroke-width="0.75"/>
    <path id="Path_38521" data-name="Path 38521" d="M23.979,198.087c1.027.91,4.9,5.961,6.413,6.543.63.067,3.422.985,3.272,2.266-.56,1.393-.782,3.581-2.427,4.072-2.644.351-3.748-2.123-4.536-3.961-1.251-1.752-5.535-4.155-7.275-5.249,0,0-.87-3.8,4.553-3.671" transform="translate(-444 12727)" fill="#f69c6a"/>
    <path id="Path_38522" data-name="Path 38522" d="M47.749,176.818c.152,2.975-2.267,30.833,3.193,35.714,1.67.944,2.832,6.823,2.832,6.823s1.669-5.516.653-7.549-2.42-2.277-2.856-4.745-.483-8.466.388-9.7.969-7.3.969-7.3l3.532,6.361-.981,1.592s5.336-.43,6.352,2.038c0,0,1.017,1.025,1.307-1.956s-4.909-11.567-5.78-13.164c-.9-3.485-6.726-8.17-9.609-8.109" transform="translate(-444 12727)" fill="#fff"/>
    <path id="Path_38523" data-name="Path 38523" d="M47.749,176.818c.152,2.975-2.267,30.833,3.193,35.714,1.67.944,2.832,6.823,2.832,6.823s1.669-5.516.653-7.549-2.42-2.277-2.856-4.745-.483-8.466.388-9.7.969-7.3.969-7.3l3.532,6.361-.981,1.592s5.336-.43,6.352,2.038c0,0,1.017,1.025,1.307-1.956s-4.909-11.567-5.78-13.164C56.455,181.442,50.632,176.757,47.749,176.818Z" transform="translate(-444 12727)" fill="none" stroke="#0c878d" stroke-miterlimit="10" stroke-width="0.75"/>
    <path id="Path_38524" data-name="Path 38524" d="M56.418,197.854c-.427.41-5.438,5.928-5.849,5.929-1.221.773-.656,4.406-.137,5.692,2.495,1.577,4.032-1.812,3.333-3.621l8.066-5.807s.522-3.059-5.413-2.193" transform="translate(-444 12727)" fill="#f69c6a"/>
    <path id="Path_38525" data-name="Path 38525" d="M38.614,182.983c.9,4.148-1.235,7.316,5.12,9.573,3.714-1.765,2.933-5.173,2.968-9.149Zm7.216,5.663H44.066v2.074H42.221v-2.166H40.376V186.2l1.949.047V184.5h1.741v1.936H45.83Z" transform="translate(-444 12727)" fill="#fff"/>
    <path id="Path_38526" data-name="Path 38526" d="M46.862,161.99c-1.964.857-4.6,5.481-5.643,7.068-.364.11-.332.845-.045.8s.089,4.934.089,4.934c-4.151.895-11.333,2.032-14.734-2.194a11.915,11.915,0,0,0,2.577-.336c-3.3-.721-7.733-3.292-6.949-8.081a5.656,5.656,0,0,0,4.6,2.163,2.886,2.886,0,0,1-.476-3.218c1.248,3.152,4.058.639,5.344-1.952A11.132,11.132,0,0,1,45.3,158.633s1.691.808,1.591,1.881c3.236,1.182,3.124,6.666,1.638,10.478-2.21,3.641-2.507,2.984-4.528,3.9l-.062-2.556,2.041-.176c.652-.161,1.2-2.661,1.21-2.956a5,5,0,0,0,0-1.865,5,5,0,0,1,0-1.866,10.467,10.467,0,0,0-.063-2.661c-.233-.527.285-.6-.267-.823" transform="translate(-444 12727)" fill="#040405"/>
    <path id="Path_38527" data-name="Path 38527" d="M47.627,176.532c-.567-.122-3.25-.8-3.25-.8l-.008-2.623,1.945,0,.82-1.311c.195-.721.463-2.089.463-2.089a4.63,4.63,0,0,0,.167-2.055,3.751,3.751,0,0,1-.19-1.222c.595-2.835.776-7.929-3.377-2.786-1.642,2.44-3.13,5.152-5.482,6.124-.37.123.148.7.44.644s0,4.609,0,4.609a34.82,34.82,0,0,1-3.761,1.851l.768-.235c4.635,3.365,7.006,7.052,11.348.647,0,0,.684-.641.117-.763" transform="translate(-444 12727)" fill="#f69c6a"/>
    <path id="Path_38528" data-name="Path 38528" d="M49.107,177.633l2.956,2.216-2.542,2.123,2.542,2.777c-.944,1.8-4.49,13.823-3.423,18.24-1.824-7.385-.823-19.259-.5-26.461Z" transform="translate(-444 12727)" fill="#0c878d"/>
    <path id="Path_38529" data-name="Path 38529" d="M48.65,177.633l2.834,2.216-2.437,2.123,2.437,2.777s-3.5,9.78-3.228,13.966c.306,4.779-.054,4.274-.054,4.274-1.811-7.417-.774-19.269-.059-26.461Z" transform="translate(-444 12727)" fill="#fff"/>
    <path id="Path_38530" data-name="Path 38530" d="M35.556,177.6l-2.382,2.235,2.316,1.811L33.5,184.37c.875,1.386,4.812,12.848,4.14,16.69,1.07-6.971-.576-17.893-1.331-24.547Z" transform="translate(-444 12727)" fill="#0c878d"/>
    <path id="Path_38531" data-name="Path 38531" d="M35.948,177.568l-2.278,2.227,2.226,1.818L34,184.335c1.183,2.13,4.879,12.134,3.642,16.725,1.8-6.917-.376-17.925-1.33-24.547Z" transform="translate(-444 12727)" fill="#fff"/>
    <g id="Group_5163" data-name="Group 5163" transform="translate(-444 12727)">
      <g id="Group_5122" data-name="Group 5122" clip-path="url(#clip-path)">
        <rect id="Rectangle_3666" data-name="Rectangle 3666" width="5.949" height="5.522" transform="translate(46.297 195.309) rotate(-78.644)" fill="url(#linear-gradient)"/>
      </g>
    </g>
    <g id="Group_5164" data-name="Group 5164" transform="translate(-444 12727)">
      <g id="Group_5124" data-name="Group 5124" clip-path="url(#clip-path-2)">
        <rect id="Rectangle_3667" data-name="Rectangle 3667" width="4.667" height="4.187" transform="translate(47.519 195.126) rotate(-89.244)" fill="url(#linear-gradient-2)"/>
      </g>
    </g>
    <g id="Group_5165" data-name="Group 5165" transform="translate(-444 12727)">
      <g id="Group_5126" data-name="Group 5126" clip-path="url(#clip-path-3)">
        <path id="Path_38534" data-name="Path 38534" d="M45.9,191.326l2.78-14.923,5.649,1.618-2.78,14.923Z" fill="url(#linear-gradient-3)"/>
      </g>
    </g>
    <g id="Group_5166" data-name="Group 5166" transform="translate(-444 12727)">
      <g id="Group_5128" data-name="Group 5128" clip-path="url(#clip-path-4)">
        <rect id="Rectangle_3668" data-name="Rectangle 3668" width="3.65" height="3.475" transform="translate(47.767 193.874) rotate(-74.385)" fill="url(#linear-gradient-4)"/>
      </g>
    </g>
    <g id="Group_5167" data-name="Group 5167" transform="translate(-444 12727)">
      <g id="Group_5130" data-name="Group 5130" clip-path="url(#clip-path-5)">
        <rect id="Rectangle_3669" data-name="Rectangle 3669" width="2.637" height="2.485" transform="matrix(0.052, -0.999, 0.999, 0.052, 48.712, 193.684)" fill="url(#linear-gradient-5)"/>
      </g>
    </g>
    <path id="Path_38538" data-name="Path 38538" d="M32.761,270.528s-3.193.64-4.834-.061l-.456,1.7c-.61.918-2.883,3.749-4.58,3.724a1.287,1.287,0,0,0-.752,1.958c.651.84,4.608.663,4.608.663,1.071-.053,5.3-1.93,6.322-2.265a29.1,29.1,0,0,0-.308-5.715" transform="translate(-444 12727)" fill="#fff"/>
    <path id="Path_38539" data-name="Path 38539" d="M32.761,270.528s-3.193.64-4.834-.061l-.456,1.7c-.61.918-2.883,3.749-4.58,3.724a1.287,1.287,0,0,0-.752,1.958c.651.84,4.608.663,4.608.663,1.071-.053,5.3-1.93,6.322-2.265A29.1,29.1,0,0,0,32.761,270.528Z" transform="translate(-444 12727)" fill="none" stroke="#0c878d" stroke-miterlimit="10" stroke-width="0.75"/>
    <g id="Group_5168" data-name="Group 5168" transform="translate(-444 12727)">
      <g id="Group_5134" data-name="Group 5134" clip-path="url(#clip-path-6)">
        <rect id="Rectangle_3671" data-name="Rectangle 3671" width="10.471" height="7.13" transform="translate(29.225 197.786) rotate(-79.855)" fill="url(#linear-gradient-6)"/>
      </g>
    </g>
    <g id="Group_5169" data-name="Group 5169" transform="translate(-444 12727)">
      <g id="Group_5136" data-name="Group 5136" clip-path="url(#clip-path-7)">
        <rect id="Rectangle_3672" data-name="Rectangle 3672" width="8.41" height="9.157" transform="matrix(0.987, -0.162, 0.162, 0.987, 30.269, 189.238)" fill="url(#linear-gradient-7)"/>
      </g>
    </g>
    <path id="Path_38542" data-name="Path 38542" d="M38.083,195.322s.5-.46.647-.376c.463.6.355,1.051-.5.865a1.912,1.912,0,0,1-.151-.489" transform="translate(-444 12727)" fill="#16344e"/>
    <path id="Path_38543" data-name="Path 38543" d="M31.6,197.04s-.6.312-.724.189c-.285-.7-.06-1.107.71-.7a1.877,1.877,0,0,1,.014.511" transform="translate(-444 12727)" fill="#16344e"/>
    <g id="Group_5170" data-name="Group 5170" transform="translate(-444 12727)">
      <g id="Group_5140" data-name="Group 5140" clip-path="url(#clip-path-8)">
        <rect id="Rectangle_3674" data-name="Rectangle 3674" width="5.967" height="13.051" transform="matrix(1, -0.018, 0.018, 1, 30.04, 176.495)" fill="url(#linear-gradient-8)"/>
      </g>
    </g>
    <path id="Path_38545" data-name="Path 38545" d="M52.236,269.523s3.193.641,4.834-.061l.456,1.7c.61.918,2.884,3.749,4.58,3.724a1.287,1.287,0,0,1,.752,1.958c-.651.84-4.608.663-4.608.663-1.071-.053-5.305-1.93-6.322-2.265a29.1,29.1,0,0,1,.308-5.715" transform="translate(-444 12727)" fill="#fff"/>
    <path id="Path_38546" data-name="Path 38546" d="M52.236,269.523s3.193.641,4.834-.061l.456,1.7c.61.918,2.884,3.749,4.58,3.724a1.287,1.287,0,0,1,.752,1.958c-.651.84-4.608.663-4.608.663-1.071-.053-5.305-1.93-6.322-2.265A29.1,29.1,0,0,1,52.236,269.523Z" transform="translate(-444 12727)" fill="none" stroke="#0c878d" stroke-miterlimit="10" stroke-width="0.75"/>
    <path id="Path_38547" data-name="Path 38547" d="M23.979,195.176c-.525-.028-7.677.69-7.142,4.841,0,0,.491-3.337,7.142-4.841" transform="translate(-444 12727)" fill="#0c878d"/>
    <path id="Path_38548" data-name="Path 38548" d="M56.418,196.423s5.423-1.16,6.68.421c0,0-1.1-2.992-6.68-.421" transform="translate(-444 12727)" fill="#0c878d"/>
    <rect id="Rectangle_3675" data-name="Rectangle 3675" width="1.095" height="3.504" transform="translate(-398.58 12935.32)" fill="#e3401b"/>
    <rect id="Rectangle_3676" data-name="Rectangle 3676" width="1.095" height="3.504" transform="translate(-407.059 12935.32)" fill="#e3401b"/>
    <path id="Path_38549" data-name="Path 38549" d="M40.375,170.919c.626,2.107,1.56,2,3.355,2.133,0,0-2.551-.5-3.355-2.133" transform="translate(-444 12727)" fill="#e37d4d"/>
    <g id="Group_5175" data-name="Group 5175" transform="translate(-29.991)">
      <path id="Path_38556" data-name="Path 38556" d="M133.991,254.415h5.484v9.928h10.2v-9.928h5.509V279.5H149.68V269.423h-10.2V279.5h-5.484Z" transform="translate(-444 12727.062)" fill="#4b4b4c"/>
      <path id="Path_38557" data-name="Path 38557" d="M166.324,254.415h18.929v4.934h-13.46v5.08h11.852v4.9H171.794V274.6h13.645v4.9H166.324Z" transform="translate(-438.604 12727.062)" fill="#4b4b4c"/>
      <path id="Path_38558" data-name="Path 38558" d="M204.844,254.29h5.071l10.755,25.235H214.9l-2.275-5.615H202.009l-2.274,5.615h-5.654Zm5.791,14.724L207.3,260.9l-3.324,8.113Z" transform="translate(-433.971 12727.04)" fill="#4b4b4c"/>
      <path id="Path_38559" data-name="Path 38559" d="M229.218,254.415H234.7v20.079h12.518V279.5h-18Z" transform="translate(-428.107 12727.062)" fill="#4b4b4c"/>
      <path id="Path_38560" data-name="Path 38560" d="M284.375,254.29h5.088L300.2,279.525h-5.784l-2.26-5.615h-10.6l-2.307,5.615h-5.637Zm5.815,14.724L286.8,260.9l-3.272,8.113Z" transform="translate(-420.698 12727.04)" fill="#4b4b4c"/>
      <path id="Path_38561" data-name="Path 38561" d="M312.071,259.5h-7.623v-5.086h20.785V259.5H317.57v20h-5.5Z" transform="translate(-415.551 12727.062)" fill="#4b4b4c"/>
      <path id="Path_38562" data-name="Path 38562" d="M353.1,254.415h5.524v9.928h10.2v-9.928h5.516V279.5h-5.516V269.423h-10.2V279.5H353.1Z" transform="translate(-407.431 12727.062)" fill="#4b4b4c"/>
      <path id="Path_38563" data-name="Path 38563" d="M384.51,267.094v-.061a12.985,12.985,0,0,1,13.375-12.985,12.828,12.828,0,0,1,13.261,12.916v.069A12.956,12.956,0,0,1,397.8,280c-7.724,0-13.291-5.761-13.291-12.908m20.921,0v-.061a7.664,7.664,0,0,0-7.63-7.907,7.524,7.524,0,0,0-7.523,7.838v.069a7.644,7.644,0,0,0,7.607,7.882,7.529,7.529,0,0,0,7.546-7.822" transform="translate(-402.189 12727)" fill="#4b4b4c"/>
      <path id="Path_38564" data-name="Path 38564" d="M420.6,254.415h5.921l6.612,10.626,6.6-10.626h5.937V279.5h-5.486V263.141l-7.048,10.71h-.16L426,263.225V279.5H420.6Z" transform="translate(-396.164 12727.062)" fill="#4b4b4c"/>
      <path id="Path_38565" data-name="Path 38565" d="M456.26,254.415h18.929v4.934h-13.46v5.08h11.852v4.9H461.729V274.6h13.638v4.9H456.26Z" transform="translate(-390.214 12727.062)" fill="#4b4b4c"/>
    </g>
    <g id="Group_5176" data-name="Group 5176" transform="translate(-0.494)">
      <path id="Path_38550" data-name="Path 38550" d="M76.494,159.345h33.088c19.544,0,32.077,10.031,32.077,27.114v.21c0,18.185-14.016,27.777-33.173,27.777h-10.6V236.5H76.494Zm31.545,38.347c7.609,0,12.244-3.965,12.244-10.032v-.223c0-6.611-4.635-10.143-12.343-10.143H97.889v20.4Z" transform="translate(-444 12727)" fill="#0c878d"/>
      <path id="Path_38551" data-name="Path 38551" d="M144.226,198.152v-.223c0-22.19,17.9-40.14,41.687-40.14,23.819,0,41.459,17.733,41.459,39.9v.237c0,22.15-17.863,40.119-41.649,40.119-23.844,0-41.5-17.753-41.5-39.9m61.318,0v-.223c0-11.154-8.03-20.845-19.821-20.845-11.724,0-19.551,9.467-19.551,20.608v.237c0,11.114,8.069,20.83,19.741,20.83,11.8,0,19.631-9.467,19.631-20.607" transform="translate(-444 12727)" fill="#0c878d"/>
      <path id="Path_38552" data-name="Path 38552" d="M231.3,159.345h36.5c11.771,0,19.951,3.072,25.145,8.37,4.5,4.412,6.834,10.354,6.834,17.962v.211c0,11.8-6.289,19.635-15.894,23.713l18.415,26.9h-24.7l-15.534-23.365h-9.382V236.5H231.3Zm35.518,37.027c7.275,0,11.443-3.538,11.443-9.158V187c0-6.067-4.412-9.146-11.581-9.146h-14v18.514Z" transform="translate(-444 12727)" fill="#0c878d"/>
      <path id="Path_38553" data-name="Path 38553" d="M325.017,178.069H301.828V159.345H369.56v18.724H346.413V236.5h-21.4Z" transform="translate(-444 12727)" fill="#0c878d"/>
      <path id="Path_38554" data-name="Path 38554" d="M374.511,159.345h62.053v18.179H395.677V189.21h37.034v16.879H395.677v12.217h41.445V236.5H374.511Z" transform="translate(-444 12727)" fill="#0c878d"/>
      <path id="Path_38555" data-name="Path 38555" d="M472.527,158.787H493.11L525.955,236.5H503.062l-5.653-13.794H467.65L462.155,236.5H439.7Zm18.731,47.3-8.588-21.947-8.724,21.947Z" transform="translate(-444 12727)" fill="#0c878d"/>
      <path id="Path_38566" data-name="Path 38566" d="M76.7,159.345h33.109c19.491,0,32.064,10.031,32.064,27.114v.21c0,18.185-13.984,27.777-33.174,27.777H98.1V236.5H76.7Zm31.566,38.347c7.582,0,12.231-3.965,12.231-10.032v-.223c0-6.611-4.649-10.143-12.369-10.143H98.1v20.4Z" transform="translate(-443.696 12727)" fill="#0c878d"/>
      <path id="Path_38567" data-name="Path 38567" d="M144.468,198.152v-.223c0-22.19,17.878-40.14,41.669-40.14,23.839,0,41.447,17.733,41.447,39.9v.237c0,22.15-17.884,40.119-41.67,40.119-23.811,0-41.446-17.753-41.446-39.9m61.286,0v-.223c0-11.154-8.036-20.845-19.84-20.845-11.711,0-19.537,9.467-19.537,20.608v.237c0,11.114,8.068,20.83,19.76,20.83,11.772,0,19.617-9.467,19.617-20.607" transform="translate(-444 12727)" fill="#0c878d"/>
      <path id="Path_38568" data-name="Path 38568" d="M231.522,159.345H268c11.772,0,19.926,3.072,25.119,8.37,4.517,4.412,6.841,10.354,6.841,17.962v.211c0,11.8-6.29,19.635-15.835,23.713L302.5,236.5H277.813l-15.566-23.365H252.9V236.5H231.522ZM267,196.372c7.294,0,11.449-3.538,11.449-9.158V187c0-6.067-4.358-9.146-11.548-9.146h-14v18.514Z" transform="translate(-444 12727)" fill="#0c878d"/>
      <path id="Path_38569" data-name="Path 38569" d="M325.226,178.069H302.051V159.345h67.74v18.724H346.615V236.5H325.226Z" transform="translate(-444 12727)" fill="#0c878d"/>
      <path id="Path_38570" data-name="Path 38570" d="M374.747,159.345h62.027v18.179H395.887V189.21h37.027v16.879H395.887v12.217h41.471V236.5H374.747Z" transform="translate(-444 12727)" fill="#0c878d"/>
      <path id="Path_38571" data-name="Path 38571" d="M472.758,158.787H493.32l32.9,77.712H503.253l-5.62-13.794H467.88L462.339,236.5H439.861Zm18.7,47.3-8.587-21.947-8.692,21.947Z" transform="translate(-444 12727)" fill="#0c878d"/>
      <text id="TM" transform="translate(58.058 12880.497)" fill="#0c878d" font-size="5.254" font-family="Helvetica"><tspan x="0" y="0" letter-spacing="-0.025em">T</tspan><tspan y="0">M</tspan></text>
      <path id="Path_38572" data-name="Path 38572" d="M505.939,146.31a5.409,5.409,0,1,0,5.408,5.408,5.408,5.408,0,0,0-5.408-5.408m0,9.9a4.494,4.494,0,1,1,4.495-4.495,4.5,4.5,0,0,1-4.495,4.495" transform="translate(-444 12727)" fill="#0c878d"/>
    </g>
  </g>
</svg>
