<?xml version="1.0" encoding="utf-8"?>
<!-- Generator: Adobe Illustrator 21.0.2, SVG Export Plug-In . SVG Version: 6.00 Build 0)  -->
<svg version="1.1" id="Layer_1" xmlns="http://www.w3.org/2000/svg" xmlns:xlink="http://www.w3.org/1999/xlink" x="0px" y="0px"
	 viewBox="0 0 247 60" style="enable-background:new 0 0 247 60;" xml:space="preserve">
<style type="text/css">
	.st0{clip-path:url(#SVGID_2_);}
	.st1{clip-path:url(#SVGID_4_);fill:#FEC10E;}
	.st2{clip-path:url(#SVGID_6_);}
	.st3{clip-path:url(#SVGID_8_);fill:#373737;}
</style>
<g>
	<g>
		<defs>
			<path id="SVGID_1_" d="M42.6,21.4c0-1.5-0.2-2.9-0.5-4.4c-1.6-6.8-6.9-11.6-13.6-13.7c3.7,0.9,7.1,2.8,9.7,5.3
				c-3.9-5-10-8.3-16.9-8.3C9.6,0.3,0.1,9.8,0.1,21.4c0,3,0.7,5.9,1.8,8.6c-1.2,2.6-1.8,5.5-1.8,8.6c0,2.4,0.4,4.8,1.2,7
				c-0.3-1.4-0.5-2.9-0.5-4.5c0-1.8,0.2-3.6,0.7-5.3c-0.2,1.2-0.3,2.4-0.3,3.6c0,4,1.2,7.8,3.2,11c0.4,0.3,0.7,0.7,1.1,1
				c-0.1-0.3-0.2-0.6-0.3-0.9c1.9,3.2,5.2,5.7,8.6,7.4c-0.3,0-0.5-0.2-0.8-0.3c-1.5-0.7-2.8-1.6-4.1-2.4c0.1,0.1,0.2,0.3,0.4,0.4
				c1.9,1.4,4,2.6,6.3,3.3c1.8,0.5,3.8,0.8,5.8,0.8c11.7,0,21.2-9.5,21.2-21.1c0-3.1-0.6-5.9-1.8-8.6C41.9,27.4,42.6,24.5,42.6,21.4
				 M37.2,21.4c0,1-0.1,1.9-0.3,2.8c-0.6-0.6-1.2-1.2-1.8-1.8v0.1c-3.1-2.7-7.6-5.1-13.8-5.1c-6.1,0-10.6,2.3-13.6,4.9v-0.1
				c-0.7,0.6-1.4,1.2-2,1.9c-0.2-0.9-0.3-1.9-0.3-2.8c0-4.4,1.8-8.3,4.7-11.2C13,7.4,17,5.6,21.3,5.6c4.4,0,8.4,1.8,11.2,4.6
				C35.5,13.1,37.2,17.1,37.2,21.4 M34.7,30c-0.6,0.9-1.3,1.8-2.1,2.6c-2.9,2.9-6.8,4.6-11.2,4.6c-4.4,0-8.4-1.8-11.2-4.6
				C9.3,31.8,8.6,30.9,8,30c0.6-0.9,1.3-1.8,2.1-2.6c2.9-2.9,6.8-4.6,11.2-4.6c4.4,0,8.4,1.8,11.2,4.6C33.4,28.2,34.1,29.1,34.7,30
				 M30.8,4.9c-0.6-0.2-1.4-0.5-2.1-0.7c0.5,0.2,1,0.4,1.3,0.7C26.4,3,22.4,2.8,18.5,3.3c2.1-0.5,3.9-0.4,5.5-0.4
				c-0.3-0.1-0.6-0.2-0.8-0.3C25.5,2.7,28.3,3.4,30.8,4.9 M1.8,17.5l0-0.5C3.7,6.3,14.1-0.7,24.8,1.2c2.7,0.5,5.1,1.5,7.3,2.9
				c-1.9-1-3.9-1.8-6.1-2.2C15.2,0,3.8,6.8,1.8,17.5 M5,21.5C5,21.5,5,21.5,5,21.5c-0.1-1.9-0.1-3.6,0.8-6c0.4-1,0.9-2,1.5-3
				C6.1,14.8,4.9,18.4,5,21.5 M9.2,50.1c-0.7-0.8-1.4-1.8-1.9-2.8c1.4,2.2,4.1,4.9,6.8,6.2c0.1,0,0,0,0.1,0.1
				C12.5,52.8,10.9,52,9.2,50.1 M32.9,55.6C28,59.4,20.8,60.2,15,57.5c3.7,1.3,8.1,1.7,11.8,0.5c-2.2,0.4-4.6,0.7-6.9,0.3
				c4.5,0.3,9.4-0.9,12.9-3.6c0.2,0.1,0.8-0.4,1-0.6c-0.4,0.4-0.7,0.7-1,1.1C32.3,55.7,32.2,56.1,32.9,55.6 M34.1,51.1
				c-0.7,0.7-1.7,1.5-2.6,2.1c2.1-1.6,4.6-4.4,5.7-7.2c0-0.1,0,0,0.1-0.1C36.6,47.7,35.9,49.3,34.1,51.1 M24.6,54.7
				c-4,0.6-7.9-0.3-11-2.4c-1.3-0.7-2.4-1.6-3.5-2.6c-2.9-2.9-4.7-6.8-4.7-11.2c0-1,0.1-1.9,0.3-2.8c0.6,0.7,1.3,1.3,2,1.9v-0.1
				c3.1,2.7,7.5,5,13.6,5c6.2,0,10.7-2.4,13.8-5.1v0.1c0.6-0.5,1.3-1.1,1.8-1.8c0.2,0.9,0.3,1.9,0.3,2.8c0,4.4-1.8,8.3-4.7,11.2
				c-2.9,2.9-6.8,4.6-11.2,4.6c-2.4,0-4.6-0.5-6.6-1.4c2.8,1.4,6.1,1.9,9.4,1.4C33,53,39.1,44.8,37.7,36c-0.1-0.3-0.1-0.7-0.2-1
				c0,0,0.1-0.1,0.1-0.1c0.2,0.6,0.3,1.2,0.4,1.8C39.3,45.3,33.3,53.4,24.6,54.7"/>
		</defs>
		<clipPath id="SVGID_2_">
			<use xlink:href="#SVGID_1_"  style="overflow:visible;"/>
		</clipPath>
		<g class="st0">
			<defs>
				<rect id="SVGID_3_" x="-238.9" y="-19.7" width="1440" height="900"/>
			</defs>
			<clipPath id="SVGID_4_">
				<use xlink:href="#SVGID_3_"  style="overflow:visible;"/>
			</clipPath>
			<rect x="-4.9" y="-4.7" class="st1" width="52.5" height="69.4"/>
		</g>
	</g>
	<g>
		<defs>
			<path id="SVGID_5_" d="M137.8,27.4L137.8,27.4c0.1,0,0.1,0,0.2,0c0.2,0,0.5-0.1,0.6-0.1l0,0l0,0c0.7-0.4,0.8-1.2,0.8-1.5
				c0-0.8-0.4-1.3-0.8-1.5c-0.2-0.1-0.4-0.1-0.8-0.2h-2.7v-4.1c0-0.1,0-0.5-0.2-0.8c-0.2-0.7-0.9-1-1.8-1h-0.1c-1.2,0-1.6,0.7-1.7,1
				c-0.1,0.3-0.2,0.8-0.2,0.8l0,0V24H129l-0.1,0c-0.3,0-0.4,0-0.7,0.2c-0.5,0.2-0.9,0.8-0.9,1.5c0,1,0.6,1.4,0.8,1.5
				c0.2,0.1,0.4,0.1,0.6,0.1c0.1,0,0.1,0,0.2,0l0,0h2.3v10.7c0,1.5,0,2.4,0.2,3.2c0.2,0.6,0.5,1.1,0.7,1.3c0.9,1,2.3,1.5,4.4,1.5
				c0.7,0,2.5,0,2.5-1.7c0-0.7-0.2-1.2-0.8-1.5c-0.2-0.1-0.4-0.1-0.7-0.2l-0.6,0c-0.2,0-1.2-0.1-1.6-0.5c-0.2-0.2-0.4-0.7-0.4-1.6
				V27.4H137.8z M118.9,23.6c-2.4,0-4.4,1-5.4,1.9c-0.1,0.1-0.3,0.2-0.3,0.3v-7.1c0-0.3-0.1-0.6-0.2-0.9c-0.3-0.6-1-1-1.8-1
				c0,0-0.1,0-0.1,0c-0.8,0-1.5,0.4-1.7,1c-0.1,0.3-0.2,0.8-0.2,0.9v23.5c0,0.1,0,0.6,0.2,0.9c0.2,0.5,0.8,1,1.8,1
				c1,0,1.6-0.6,1.8-1c0.2-0.3,0.2-0.7,0.2-0.9v-8.8l0-0.3c0-0.9,0.1-1.8,0.3-2.5c0.2-0.6,0.8-2.2,3-3c0.6-0.2,1.1-0.3,1.7-0.3h0.1
				c0.5,0,1.7,0,2.5,1c0.8,0.9,0.8,2.1,0.8,4.4l0,0.2v9.3c0,0.1,0,0.5,0.2,0.9c0.5,1,1.7,1,1.8,1c1,0,1.6-0.6,1.8-1
				c0.1-0.3,0.2-0.5,0.2-0.8l0-0.1l0,0V31.4c0-1.7,0-3.3-0.9-4.9C124.2,25.6,122.6,23.6,118.9,23.6z M103.4,23.8
				c-0.8,0-1.4,0.4-1.6,0.8c-0.2,0.3-0.2,0.8-0.2,0.8l0,0.3c-0.1-0.1-0.2-0.3-0.3-0.4c-0.8-0.7-2.2-1.6-4.8-1.6h-0.1
				c-0.8,0-3,0-5.2,1.6c-1.6,1.2-3.5,3.6-3.5,8.4c0,5.9,3,8.1,4.7,8.9c1,0.4,2.2,0.7,3.5,0.7c3,0,4.5-1.2,5.4-2.2l0,1.1
				c0,1.7-0.1,3.9-2,4.8c-0.7,0.3-1.5,0.4-2.4,0.4c-0.9,0-2.5-0.1-3.3-0.9c-0.1-0.1-0.3-0.3-0.5-0.7c-0.4-0.5-1-0.9-1.7-0.9
				c-1.1,0-2,0.9-2,2c0,0.3,0.1,0.6,0.2,0.9l0,0l0,0l0.1,0.1c0.4,0.6,0.8,1,1.4,1.4c1.9,1.3,4.5,1.4,5.5,1.4c0.9,0,4.2-0.1,6.2-1.7
				c1.7-1.5,2-3.5,2.2-5.7c0-0.7,0-1.4,0-2.1V25.4c0-0.3-0.1-0.6-0.2-0.9C104.6,24.1,104,23.8,103.4,23.8z M100.4,37.8
				c-0.1,0.2-1.4,1.9-4,1.9c-1.1,0-2.1-0.3-2.9-1c-0.5-0.4-0.7-0.7-0.8-0.9c-0.9-1.4-1-3.5-1-4.3v0c0-1.8,0.4-3.3,1.1-4.4
				c0.9-1.3,2.3-2,3.9-2c0.6,0,1.9,0,3.1,1.1c0.7,0.7,1.6,2.1,1.6,4.8v0.1C101.4,33.8,101.4,36.3,100.4,37.8z M72.2,29.2
				c-1-0.5-2.6-0.9-2.8-1l-3.5-1c-2-0.6-3.1-0.9-3.7-1.7c-0.5-0.6-0.5-1.5-0.5-1.6c0-1.9,1.3-3.8,4.9-3.8c2.4,0,3.7,0.8,4.4,1.5
				c0.2,0.2,0.5,0.5,0.7,0.8l0,0l0,0c0.4,0.4,0.9,0.6,1.5,0.6c1.1,0,2-0.9,2-2c0-0.3-0.1-0.7-0.2-1l0,0l0,0c-0.4-0.6-0.9-1-1.3-1.4
				c-1.6-1.3-4-2-6.8-2h-0.1c-3.6,0-6.3,1.1-7.9,3.2c-0.7,0.9-1.4,2.3-1.4,4.5c0,2.9,1.3,4.4,2.4,5.2c1,0.7,1.8,1,3.7,1.6l0.4,0.1
				l2.8,0.8l0.1,0c1.3,0.4,3.2,0.9,4.3,1.7c1.4,1,1.6,2.2,1.6,2.9c0,0.8-0.2,1.4-0.6,2.1c-0.9,1.4-2.5,2.1-5,2.1
				c-2.9,0-4.2-0.9-4.9-1.5c-0.6-0.5-1.1-1.2-1.3-2c-0.3-0.8-1.1-1.3-2-1.3c-1.2,0-2.1,0.9-2.1,2.1c0,0.2,0,0.4,0.1,0.6
				c0.2,0.5,0.4,0.9,0.5,1.1c0,0.1,0,0.1,0.1,0.1l0,0l0,0c0.9,1.5,2,2.3,2.4,2.6c1.7,1.1,4.4,1.8,7,1.8c1.9,0,5.5-0.4,7.9-2.7
				c0.5-0.5,2.1-2.1,2.1-5.3C76.9,32.9,75.3,30.5,72.2,29.2z M82.3,23.8c-0.6,0-1.4,0.3-1.8,1l0,0l0,0c-0.1,0.3-0.2,0.8-0.2,0.9
				l0,16.5c0,0.4,0.1,0.7,0.2,0.9c0.1,0.3,0.6,1,1.8,1c1,0,1.5-0.5,1.7-1c0.1-0.2,0.2-0.5,0.2-0.9V25.7c0-0.4-0.1-0.7-0.2-0.9
				C83.8,24,82.9,23.8,82.3,23.8z M82.3,16.5c-1.5,0-2.6,1.1-2.6,2.6c0,1.5,1,2.5,2.6,2.5h0.1c1.5,0,2.5-1,2.5-2.5
				C84.9,17.6,83.8,16.5,82.3,16.5z M153.9,33.1c-0.9-0.5-1.9-0.8-2.7-1l-2.2-0.7c-0.1,0-0.3-0.1-0.4-0.1c-0.8-0.2-1.8-0.5-2.3-1.2
				c-0.3-0.4-0.3-0.8-0.3-1.1c0-0.5,0.2-0.9,0.4-1.3c0.5-0.6,1.4-1,2.6-1c1.1,0,2.7,0.3,3.7,1.6l0,0l0,0c0,0,0.1,0.1,0.1,0.2
				c0.3,0.5,0.9,0.7,1.4,0.7c1,0,1.8-0.8,1.8-1.8c0-0.3-0.1-0.7-0.3-1c-1.4-1.8-3.6-2.8-6.6-2.8c-5.2,0-7.1,3-7.1,5.8
				c0,2.3,1.2,4,3.7,4.9c0.6,0.2,1.1,0.4,1.7,0.6l0.1,0l2.2,0.6l0.2,0.1c1.4,0.4,3.2,1,3.2,2.7c0,0.2,0,0.9-0.5,1.5
				c-1,1.1-2.7,1.1-3.1,1.1c-1.8,0-2.8-0.7-3.1-0.9c-0.4-0.3-0.7-0.7-1-1.3c-0.3-0.6-1-1-1.7-1c-1.1,0-1.9,0.9-1.9,1.9
				c0,0.3,0.1,0.7,0.3,1c0.1,0.1,0.1,0.2,0.2,0.3c1.3,2.1,3.7,3.1,7,3.1c7.2,0,7.8-4.7,7.8-6.1C157.1,35.8,156,34.2,153.9,33.1z
				 M243.7,33.1c-0.9-0.5-1.9-0.8-2.7-1l-2.2-0.7c-0.1,0-0.3-0.1-0.4-0.1c-0.8-0.3-1.8-0.5-2.3-1.3c-0.3-0.4-0.3-0.8-0.3-1.1
				c0-0.5,0.2-0.9,0.4-1.3c0.5-0.6,1.4-1,2.6-1c1.1,0,2.7,0.3,3.7,1.6l0,0l0,0c0,0,0.1,0.1,0.1,0.2c0.3,0.5,0.9,0.7,1.5,0.7
				c1,0,1.8-0.8,1.8-1.8c0-0.3-0.1-0.7-0.3-1c-1.4-1.8-3.6-2.8-6.6-2.8c-5.2,0-7.1,3-7.1,5.8c0,2.3,1.3,4,3.7,4.9
				c0.6,0.2,1.1,0.4,1.7,0.6l0,0l2.2,0.6l0.2,0.1c1.4,0.4,3.2,1,3.2,2.7c0,0.2,0,0.9-0.5,1.5c-1,1.1-2.7,1.1-3.1,1.1
				c-1.8,0-2.8-0.7-3.1-0.9c-0.4-0.3-0.7-0.7-1-1.3c-0.3-0.6-1-1-1.7-1c-1.1,0-1.9,0.9-1.9,1.9c0,0.3,0.1,0.7,0.3,1
				c0.1,0.1,0.1,0.2,0.2,0.3c1.3,2.1,3.7,3.1,7,3.1c7.2,0,7.8-4.7,7.8-6.1C246.9,35.8,245.8,34.2,243.7,33.1z M227.8,23.8
				c-0.8,0-1.4,0.1-1.7,0.2l-0.1,0c-1.3,0.5-2.3,1.3-3,2.3c0,0.1-0.1,0.1-0.1,0.2l0-0.9l0-0.1c0-0.3,0-0.4-0.2-0.7
				c-0.2-0.5-0.7-1-1.7-1c-1,0-1.5,0.5-1.7,1c-0.1,0.3-0.2,0.8-0.2,0.8v16.7c0,0.4,0.1,0.6,0.2,0.8c0.1,0.3,0.5,1,1.7,1h0.1
				c1.1,0,1.5-0.5,1.7-1c0.2-0.3,0.2-0.7,0.2-0.9v-5.2c0-0.2,0-0.5,0-0.7c0-0.2,0-0.5,0-0.7c0-2.6,0.1-3.9,0.7-5.1
				c1-2.2,3.1-2.7,4-2.9l0.1,0l0.6-0.1l0,0c0.4-0.1,1.7-0.3,1.7-1.8C230.1,25,229.8,23.8,227.8,23.8z M193.9,23.8
				c-1.3,0-1.6,0.8-1.8,1.2l0,0l0,0l-2.5,7.7c-0.9,2.6-1.3,4.1-1.6,5.4c-0.2-1.2-0.5-1.9-0.9-3.1c-0.1-0.4-0.2-0.7-0.4-1.2l-2.9-8.8
				l0,0l0,0c-0.1-0.3-0.5-1.3-1.7-1.3c-1.6,0-2.2,1.1-2.2,1.8c0,0.2,0,0.4,0.1,0.7l0,0.1l5.9,16.5c0.3,0.6,0.7,1.2,2,1.2
				c1.3,0,1.7-0.6,2.1-1.1l0,0l0,0l5.9-16.6l0,0l0,0c0.1-0.4,0.1-0.6,0.1-0.7C196,24.7,195.3,23.8,193.9,23.8z M175.2,23.8
				c-1.1,0-1.7,0.6-1.8,1.1c-0.1,0.2-0.1,0.4-0.1,0.6c0,0,0,0.1,0,0.1l0,0v0.2c-0.1-0.1-0.2-0.3-0.4-0.4c-2-1.7-4.4-1.7-5.1-1.7
				c-3,0-4.7,1.2-5.7,2.1c-2,1.9-3,4.6-3,8.1c0,2.2,0.5,7.6,4.9,9.6c1.6,0.8,3,0.8,3.7,0.8c3.1,0,4.8-1.2,5.5-2
				c0.1-0.1,0.2-0.2,0.3-0.3v0.2l0,0l0,0.2c0,0.3,0,0.4,0.1,0.6c0.4,1.1,1.6,1.1,1.8,1.1c0.1,0,1.3,0,1.8-1l0,0l0,0
				c0.1-0.2,0.1-0.4,0.2-0.9V25.7c0-0.1,0-0.6-0.2-1C176.6,23.9,175.5,23.8,175.2,23.8z M171.7,39.6c-0.6,0.6-1.5,1.4-3.6,1.4
				c-0.6,0-2,0-3.2-1.2c0,0-0.5-0.5-0.9-1.1c-0.8-1.5-0.9-3.8-0.9-4.7l0-0.1c0-2.2,0.4-3.9,1.3-5.1c0.3-0.4,1.3-1.8,3.7-1.8
				c0.5,0,1.9,0,3.1,1.1c1,0.8,2.1,2.2,2.1,5.7C173.4,35.6,173.2,38,171.7,39.6z M211.5,24.7c-1.2-0.7-3-1.1-4.7-1.1
				c-6,0-8.1,4.4-8.8,6.3c-0.6,1.8-0.7,3.2-0.7,4.2c0,3.6,1.5,8,5.6,9.5c1.7,0.6,3.3,0.6,4,0.6c2.8,0,4.3-0.7,5.3-1.4
				c0.8-0.5,1.5-1.1,2-1.8c0.2-0.3,0.4-0.7,0.4-1.1c0-1.1-0.9-1.9-2-1.9c-0.6,0-1.2,0.3-1.6,0.8c-0.2,0.4-0.4,0.6-0.6,0.8
				c-0.8,0.8-2.1,1.3-3.6,1.3c-1.4,0-2.1-0.3-2.6-0.5c-0.7-0.4-2.5-1.5-2.9-4.5c-0.1-0.2-0.1-0.5-0.1-0.8h12.4l0,0l0.2,0
				c0.2,0,0.3,0,0.6-0.1c0.8-0.3,1.2-0.9,1.2-1.8C215.7,30.3,214.6,26.5,211.5,24.7z M211.6,31.8l-10.2,0c0-0.3,0.1-0.5,0.2-0.7l0,0
				l0,0c0-0.2,0.3-1.1,0.9-1.9c1-1.5,2.4-2.1,4.3-2.1c0.9,0,1.3,0.1,1.7,0.3c2.1,0.7,2.8,2.9,2.9,3.6
				C211.6,31.3,211.6,31.5,211.6,31.8L211.6,31.8z"/>
		</defs>
		<clipPath id="SVGID_6_">
			<use xlink:href="#SVGID_5_"  style="overflow:visible;"/>
		</clipPath>
		<g class="st2">
			<defs>
				<rect id="SVGID_7_" x="-238.9" y="-19.7" width="1440" height="900"/>
			</defs>
			<clipPath id="SVGID_8_">
				<use xlink:href="#SVGID_7_"  style="overflow:visible;"/>
			</clipPath>
			<rect x="51.8" y="11.5" class="st3" width="200" height="44"/>
		</g>
	</g>
</g>
</svg>
