<svg width="25" height="25" viewBox="0 0 25 25" fill="none" xmlns="http://www.w3.org/2000/svg">
<g id="logo-twitter">
<path id="Vector" d="M23.75 5.56129C22.906 5.92801 22.013 6.16962 21.0992 6.27847C22.0595 5.71615 22.7817 4.8228 23.1303 3.76597C22.2224 4.29688 21.2307 4.66938 20.1978 4.86754C19.7629 4.41169 19.2397 4.04905 18.6603 3.80167C18.0808 3.55428 17.4571 3.42731 16.827 3.42847C14.2761 3.42847 12.2117 5.46285 12.2117 7.97066C12.2099 8.31949 12.2499 8.66728 12.3308 9.0066C10.5016 8.92085 8.7104 8.45422 7.07187 7.63656C5.43333 6.81891 3.98351 5.66824 2.81516 4.25816C2.40527 4.94916 2.1885 5.73756 2.1875 6.54097C2.1875 8.11597 3.00922 9.50816 4.25 10.3238C3.51487 10.3063 2.79481 10.1118 2.15094 9.7566V9.81285C2.15094 12.016 3.74469 13.8488 5.85406 14.266C5.4574 14.3717 5.04864 14.4253 4.63812 14.4253C4.34683 14.4259 4.0562 14.3976 3.77047 14.341C4.35687 16.1457 6.06359 17.4582 8.08531 17.4957C6.44252 18.7617 4.4256 19.446 2.35156 19.441C1.98341 19.4404 1.61561 19.4185 1.25 19.3754C3.35993 20.7226 5.81255 21.4353 8.31594 21.4285C16.8172 21.4285 21.4616 14.505 21.4616 8.50035C21.4616 8.30347 21.4564 8.1066 21.447 7.91441C22.3485 7.27319 23.1283 6.47634 23.75 5.56129Z" fill="white"/>
</g>
</svg>
