<svg width="25" height="25" viewBox="0 0 25 25" fill="none" xmlns="http://www.w3.org/2000/svg">
<g id="logo-instagram">
<path id="Vector" d="M16.8748 3.67831C18.0342 3.68177 19.1451 4.14385 19.9648 4.96363C20.7846 5.78342 21.2467 6.89428 21.2502 8.05362V16.8033C21.2467 17.9627 20.7846 19.0735 19.9648 19.8933C19.1451 20.7131 18.0342 21.1752 16.8748 21.1786H8.12516C6.96582 21.1752 5.85495 20.7131 5.03517 19.8933C4.21539 19.0735 3.75331 17.9627 3.74984 16.8033V8.05362C3.75331 6.89428 4.21539 5.78342 5.03517 4.96363C5.85495 4.14385 6.96582 3.68177 8.12516 3.67831H16.8748ZM16.8748 1.92847H8.12516C4.75625 1.92847 2 4.68472 2 8.05362V16.8033C2 20.1722 4.75625 22.9285 8.12516 22.9285H16.8748C20.2437 22.9285 23 20.1722 23 16.8033V8.05362C23 4.68472 20.2437 1.92847 16.8748 1.92847Z" fill="white"/>
<path id="Vector_2" d="M18.1873 8.05371C17.9278 8.05371 17.674 7.97673 17.4582 7.83252C17.2423 7.6883 17.0741 7.48331 16.9748 7.24348C16.8754 7.00366 16.8494 6.73976 16.9001 6.48516C16.9507 6.23056 17.0757 5.99669 17.2593 5.81313C17.4428 5.62958 17.6767 5.50457 17.9313 5.45393C18.1859 5.40329 18.4498 5.42928 18.6896 5.52862C18.9294 5.62796 19.1344 5.79619 19.2786 6.01203C19.4229 6.22787 19.4998 6.48162 19.4998 6.74121C19.5002 6.91368 19.4665 7.08451 19.4007 7.24392C19.3349 7.40333 19.2382 7.54817 19.1163 7.67012C18.9943 7.79207 18.8495 7.88873 18.6901 7.95456C18.5306 8.02039 18.3598 8.05408 18.1873 8.05371ZM12.5 8.9284C13.1923 8.9284 13.869 9.13368 14.4446 9.51828C15.0202 9.90288 15.4688 10.4495 15.7337 11.0891C15.9986 11.7287 16.068 12.4324 15.9329 13.1114C15.7978 13.7904 15.4645 14.414 14.975 14.9035C14.4855 15.393 13.8618 15.7264 13.1828 15.8615C12.5039 15.9965 11.8001 15.9272 11.1606 15.6623C10.521 15.3974 9.97433 14.9487 9.58973 14.3731C9.20513 13.7975 8.99985 13.1208 8.99985 12.4286C9.00084 11.5006 9.36992 10.6109 10.0261 9.95467C10.6823 9.29848 11.572 8.92939 12.5 8.9284ZM12.5 7.17856C11.4617 7.17856 10.4466 7.48646 9.58326 8.06334C8.7199 8.64022 8.04699 9.46015 7.64963 10.4195C7.25227 11.3788 7.14831 12.4344 7.35088 13.4528C7.55345 14.4712 8.05347 15.4066 8.78769 16.1409C9.52192 16.8751 10.4574 17.3751 11.4758 17.5777C12.4942 17.7803 13.5498 17.6763 14.5091 17.2789C15.4684 16.8816 16.2883 16.2087 16.8652 15.3453C17.4421 14.4819 17.75 13.4669 17.75 12.4286C17.75 11.0362 17.1969 9.70081 16.2123 8.71624C15.2277 7.73168 13.8924 7.17856 12.5 7.17856Z" fill="white"/>
</g>
</svg>
