<svg width="25" height="25" viewBox="0 0 25 25" fill="none" xmlns="http://www.w3.org/2000/svg">
<g id="logo-linkedin">
<path id="Vector" d="M21.3205 1.92847H3.79437C2.83672 1.92847 2 2.61753 2 3.56394V21.1289C2 22.0805 2.83672 22.9285 3.79437 22.9285H21.3153C22.2781 22.9285 23 22.0749 23 21.1289V3.56394C23.0056 2.61753 22.2781 1.92847 21.3205 1.92847ZM8.50953 19.433H5.50109V10.0791H8.50953V19.433ZM7.10938 8.6569H7.08781C6.125 8.6569 5.50156 7.94019 5.50156 7.043C5.50156 6.1294 6.14141 5.42956 7.12578 5.42956C8.11016 5.42956 8.7125 6.12425 8.73406 7.043C8.73359 7.94019 8.11016 8.6569 7.10938 8.6569ZM19.5045 19.433H16.4961V14.3185C16.4961 13.0932 16.0583 12.256 14.9698 12.256C14.1383 12.256 13.6461 12.8185 13.4272 13.3664C13.3452 13.5633 13.3231 13.8314 13.3231 14.1052V19.433H10.3147V10.0791H13.3231V11.3808C13.7609 10.7574 14.4448 9.86019 16.0363 9.86019C18.0111 9.86019 19.505 11.1619 19.505 13.9683L19.5045 19.433Z" fill="white"/>
</g>
</svg>
